<svg width="764" height="467" xmlns="http://www.w3.org/2000/svg" xmlns:xlink="http://www.w3.org/1999/xlink" xml:space="preserve" overflow="hidden"><defs><clipPath id="clip0"><rect x="1587" y="806" width="764" height="467"/></clipPath></defs><g clip-path="url(#clip0)" transform="translate(-1587 -806)"><rect x="1595" y="806" width="746" height="462" fill="#A9D18E"/><rect x="1592" y="911" width="143" height="260" stroke="#FFFFFF" stroke-width="10.3125" stroke-miterlimit="8" fill="#A9D18E"/><rect x="2202" y="911" width="144" height="260" stroke="#FFFFFF" stroke-width="10.3125" stroke-miterlimit="8" fill="#A9D18E"/><rect x="2318.5" y="1010.5" width="26.9998" height="55" stroke="#FFFFFF" stroke-width="9.16667" stroke-miterlimit="8" fill="#A9D18E"/><rect x="1593.5" y="1010.5" width="27.9999" height="55" stroke="#FFFFFF" stroke-width="9.16667" stroke-miterlimit="8" fill="#A9D18E"/><path d="M1896.5 1038C1896.5 998.512 1928.51 966.5 1968 966.5 2007.49 966.5 2039.5 998.512 2039.5 1038 2039.5 1077.49 2007.49 1109.5 1968 1109.5 1928.51 1109.5 1896.5 1077.49 1896.5 1038Z" stroke="#FFFFFF" stroke-width="9.16667" stroke-miterlimit="8" fill="#A9D18E" fill-rule="evenodd"/><path d="M1968.5 806.5 1968.5 1267.94" stroke="#FFFFFF" stroke-width="9.16667" stroke-miterlimit="8" fill="none" fill-rule="evenodd"/><path d="M1957 1029C1957 1022.37 1962.15 1017 1968.5 1017 1974.85 1017 1980 1022.37 1980 1029 1980 1035.63 1974.85 1041 1968.5 1041 1962.15 1041 1957 1035.63 1957 1029Z" fill-rule="evenodd"/><path d="M1802 919 1816 895 1830 919Z" fill="#FF0000" fill-rule="evenodd"/><path d="M1994 1041 2008 1017 2022 1041Z" fill="#4472C4" fill-rule="evenodd"/><path d="M1802 1177 1816 1153 1830 1177Z" fill="#FF0000" fill-rule="evenodd"/><path d="M1953 1014 1967 990 1981 1014Z" fill="#FF0000" fill-rule="evenodd"/><path d="M2123 1163 2136.5 1139 2150 1163Z" fill="#4472C4" fill-rule="evenodd"/><path d="M2048 1108 2061.5 1084 2075 1108Z" fill="#4472C4" fill-rule="evenodd"/><path d="M2088 1041 2102 1018 2116 1041Z" fill="#4472C4" fill-rule="evenodd"/><path d="M2050 978 2064 954 2078 978Z" fill="#4472C4" fill-rule="evenodd"/><path d="M2118 923 2132 899 2146 923Z" fill="#4472C4" fill-rule="evenodd"/><path d="M2322 1048 2335.5 1024 2349 1048Z" fill="#4472C4" fill-rule="evenodd"/><path d="M2143 1082 2156.5 1059 2170 1082Z" fill="#4472C4" fill-rule="evenodd"/><path d="M2148 989 2162 965 2176 989Z" fill="#4472C4" fill-rule="evenodd"/><path d="M1957 1175 1970.5 1151 1984 1175Z" fill="#4472C4" fill-rule="evenodd"/><path d="M1982 919 1995.5 895 2009 919Z" fill="#4472C4" fill-rule="evenodd"/><path d="M1595 1045 1609 1021 1623 1045Z" fill="#FF0000" fill-rule="evenodd"/><path d="M1859 1102 1872.5 1079 1886 1102Z" fill="#FF0000" fill-rule="evenodd"/><path d="M1831 1039 1845 1016 1859 1039Z" fill="#FF0000" fill-rule="evenodd"/><path d="M1776 1090 1790 1066 1804 1090Z" fill="#FF0000" fill-rule="evenodd"/><path d="M1952 1069 1966 1045 1980 1069Z" fill="#FF0000" fill-rule="evenodd"/><path d="M1864 970 1877.5 947 1891 970Z" fill="#FF0000" fill-rule="evenodd"/><path d="M1953 919 1967 895 1981 919Z" fill="#FF0000" fill-rule="evenodd"/><path d="M1776 1006 1790 982 1804 1006Z" fill="#FF0000" fill-rule="evenodd"/></g></svg>