<svg width="766" height="467" xmlns="http://www.w3.org/2000/svg" xmlns:xlink="http://www.w3.org/1999/xlink" xml:space="preserve" overflow="hidden"><defs><clipPath id="clip0"><rect x="538" y="806" width="766" height="467"/></clipPath></defs><g clip-path="url(#clip0)" transform="translate(-538 -806)"><rect x="545" y="806" width="747" height="462" fill="#A9D18E"/><rect x="543" y="911" width="143" height="260" stroke="#FFFFFF" stroke-width="10.3125" stroke-miterlimit="8" fill="#A9D18E"/><rect x="1153" y="911" width="143" height="260" stroke="#FFFFFF" stroke-width="10.3125" stroke-miterlimit="8" fill="#A9D18E"/><rect x="1268.5" y="1010.5" width="28.0002" height="55" stroke="#FFFFFF" stroke-width="9.16667" stroke-miterlimit="8" fill="#A9D18E"/><rect x="543.5" y="1010.5" width="28.0002" height="55" stroke="#FFFFFF" stroke-width="9.16667" stroke-miterlimit="8" fill="#A9D18E"/><path d="M847.5 1038C847.5 998.512 879.511 966.5 919 966.5 958.488 966.5 990.5 998.512 990.5 1038 990.5 1077.49 958.488 1109.5 919 1109.5 879.511 1109.5 847.5 1077.49 847.5 1038Z" stroke="#FFFFFF" stroke-width="9.16667" stroke-miterlimit="8" fill="#A9D18E" fill-rule="evenodd"/><path d="M918.5 806.5 918.5 1267.94" stroke="#FFFFFF" stroke-width="9.16667" stroke-miterlimit="8" fill="none" fill-rule="evenodd"/><path d="M1118 876C1118 868.82 1123.6 863 1130.5 863 1137.4 863 1143 868.82 1143 876 1143 883.18 1137.4 889 1130.5 889 1123.6 889 1118 883.18 1118 876Z" fill-rule="evenodd"/><path d="M1072 891 1092.5 856 1113 891Z" fill="#FF0000" fill-rule="evenodd"/><path d="M1072 1045 1092.5 1010 1113 1045Z" fill="#FF0000" fill-rule="evenodd"/><path d="M541 1048 561 1013 581 1048Z" fill="#FF0000" fill-rule="evenodd"/><path d="M1151 889 1171.5 854 1192 889Z" fill="#4472C4" fill-rule="evenodd"/><path d="M1264 1051 1284 1016 1304 1051Z" fill="#4472C4" fill-rule="evenodd"/></g></svg>