<svg width="766" height="467" xmlns="http://www.w3.org/2000/svg" xmlns:xlink="http://www.w3.org/1999/xlink" xml:space="preserve" overflow="hidden"><defs><clipPath id="clip0"><rect x="538" y="273" width="766" height="467"/></clipPath></defs><g clip-path="url(#clip0)" transform="translate(-538 -273)"><rect x="545" y="273" width="747" height="461" fill="#A9D18E"/><rect x="543" y="377" width="143" height="260" stroke="#FFFFFF" stroke-width="10.3125" stroke-miterlimit="8" fill="#A9D18E"/><rect x="1153" y="377" width="143" height="260" stroke="#FFFFFF" stroke-width="10.3125" stroke-miterlimit="8" fill="#A9D18E"/><rect x="1268.5" y="476.5" width="28.0002" height="55" stroke="#FFFFFF" stroke-width="9.16667" stroke-miterlimit="8" fill="#A9D18E"/><rect x="543.5" y="476.5" width="28.0002" height="55" stroke="#FFFFFF" stroke-width="9.16667" stroke-miterlimit="8" fill="#A9D18E"/><path d="M847.5 504C847.5 464.512 879.511 432.5 919 432.5 958.488 432.5 990.5 464.512 990.5 504 990.5 543.488 958.488 575.5 919 575.5 879.511 575.5 847.5 543.488 847.5 504Z" stroke="#FFFFFF" stroke-width="9.16667" stroke-miterlimit="8" fill="#A9D18E" fill-rule="evenodd"/><path d="M918.5 273.5 918.5 734.941" stroke="#FFFFFF" stroke-width="9.16667" stroke-miterlimit="8" fill="none" fill-rule="evenodd"/><path d="M1092 501C1092 493.82 1097.6 488 1104.5 488 1111.4 488 1117 493.82 1117 501 1117 508.18 1111.4 514 1104.5 514 1097.6 514 1092 508.18 1092 501Z" fill-rule="evenodd"/><path d="M1098 400 1118 365 1138 400Z" fill="#FF0000" fill-rule="evenodd"/><path d="M1044 513 1064.5 478 1085 513Z" fill="#FF0000" fill-rule="evenodd"/><path d="M1098 633 1118 598 1138 633Z" fill="#FF0000" fill-rule="evenodd"/><path d="M541 514 561 479 581 514Z" fill="#FF0000" fill-rule="evenodd"/><path d="M1168 514 1188 479 1208 514Z" fill="#4472C4" fill-rule="evenodd"/><path d="M1264 517 1284 482 1304 517Z" fill="#4472C4" fill-rule="evenodd"/></g></svg>