<svg width="763" height="467" xmlns="http://www.w3.org/2000/svg" xmlns:xlink="http://www.w3.org/1999/xlink" xml:space="preserve" overflow="hidden"><defs><clipPath id="clip0"><rect x="1588" y="273" width="763" height="467"/></clipPath></defs><g clip-path="url(#clip0)" transform="translate(-1588 -273)"><rect x="1595" y="273" width="747" height="461" fill="#A9D18E"/><rect x="1593" y="377" width="143" height="260" stroke="#FFFFFF" stroke-width="10.3125" stroke-miterlimit="8" fill="#A9D18E"/><rect x="2203" y="377" width="143" height="260" stroke="#FFFFFF" stroke-width="10.3125" stroke-miterlimit="8" fill="#A9D18E"/><rect x="2319.5" y="476.5" width="26.9998" height="55" stroke="#FFFFFF" stroke-width="9.16667" stroke-miterlimit="8" fill="#A9D18E"/><rect x="1594.5" y="476.5" width="26.9998" height="55" stroke="#FFFFFF" stroke-width="9.16667" stroke-miterlimit="8" fill="#A9D18E"/><path d="M1897.5 504C1897.5 464.512 1929.51 432.5 1969 432.5 2008.49 432.5 2040.5 464.512 2040.5 504 2040.5 543.488 2008.49 575.5 1969 575.5 1929.51 575.5 1897.5 543.488 1897.5 504Z" stroke="#FFFFFF" stroke-width="9.16667" stroke-miterlimit="8" fill="#A9D18E" fill-rule="evenodd"/><path d="M1969.5 273.5 1969.5 734.941" stroke="#FFFFFF" stroke-width="9.16667" stroke-miterlimit="8" fill="none" fill-rule="evenodd"/><path d="M1953 490.5C1953 483.597 1958.6 478 1965.5 478 1972.4 478 1978 483.597 1978 490.5 1978 497.404 1972.4 503 1965.5 503 1958.6 503 1953 497.404 1953 490.5Z" fill-rule="evenodd"/><path d="M1893 437 1913.5 402 1934 437Z" fill="#FF0000" fill-rule="evenodd"/><path d="M1889 579 1909.5 544 1930 579Z" fill="#FF0000" fill-rule="evenodd"/><path d="M1591 514 1611.5 479 1632 514Z" fill="#FF0000" fill-rule="evenodd"/><path d="M1987 474 2007.5 439 2028 474Z" fill="#4472C4" fill-rule="evenodd"/><path d="M1987 533 2007 498 2027 533Z" fill="#4472C4" fill-rule="evenodd"/><path d="M1937 473 1957.5 438 1978 473Z" fill="#FF0000" fill-rule="evenodd"/><path d="M1935 533 1955.5 498 1976 533Z" fill="#FF0000" fill-rule="evenodd"/><path d="M2019 435 2039.5 400 2060 435Z" fill="#4472C4" fill-rule="evenodd"/><path d="M2017 579 2037 544 2057 579Z" fill="#4472C4" fill-rule="evenodd"/><path d="M2309 514 2329.5 479 2350 514Z" fill="#4472C4" fill-rule="evenodd"/></g></svg>