<svg width="769" height="469" xmlns="http://www.w3.org/2000/svg" xmlns:xlink="http://www.w3.org/1999/xlink" xml:space="preserve" overflow="hidden"><defs><clipPath id="clip0"><rect x="538" y="1392" width="769" height="469"/></clipPath></defs><g clip-path="url(#clip0)" transform="translate(-538 -1392)"><rect x="545" y="1392" width="747" height="461" fill="#A9D18E"/><rect x="543" y="1496" width="143" height="260" stroke="#FFFFFF" stroke-width="10.3125" stroke-miterlimit="8" fill="#A9D18E"/><rect x="1153" y="1496" width="143" height="260" stroke="#FFFFFF" stroke-width="10.3125" stroke-miterlimit="8" fill="#A9D18E"/><rect x="1268.5" y="1595.5" width="28.0002" height="55" stroke="#FFFFFF" stroke-width="9.16667" stroke-miterlimit="8" fill="#A9D18E"/><rect x="543.5" y="1595.5" width="28.0002" height="55" stroke="#FFFFFF" stroke-width="9.16667" stroke-miterlimit="8" fill="#A9D18E"/><path d="M847.5 1623C847.5 1583.51 879.511 1551.5 919 1551.5 958.488 1551.5 990.5 1583.51 990.5 1623 990.5 1662.49 958.488 1694.5 919 1694.5 879.511 1694.5 847.5 1662.49 847.5 1623Z" stroke="#FFFFFF" stroke-width="9.16667" stroke-miterlimit="8" fill="#A9D18E" fill-rule="evenodd"/><path d="M918.5 1392.5 918.5 1853.94" stroke="#FFFFFF" stroke-width="9.16667" stroke-miterlimit="8" fill="none" fill-rule="evenodd"/><path d="M1264 1839C1264 1832.37 1269.37 1827 1276 1827 1282.63 1827 1288 1832.37 1288 1839 1288 1845.63 1282.63 1851 1276 1851 1269.37 1851 1264 1845.63 1264 1839Z" fill-rule="evenodd"/><path d="M908 1630 922 1606 936 1630Z" fill="#FF0000" fill-rule="evenodd"/><path d="M944 1630 958 1606 972 1630Z" fill="#4472C4" fill-rule="evenodd"/><path d="M1094 1818 1107.5 1794 1121 1818Z" fill="#FF0000" fill-rule="evenodd"/><path d="M1280 1861 1293.5 1837 1307 1861Z" fill="#FF0000" fill-rule="evenodd"/><path d="M1181 1772 1194.5 1748 1208 1772Z" fill="#4472C4" fill-rule="evenodd"/><path d="M1151 1726 1165 1702 1179 1726Z" fill="#4472C4" fill-rule="evenodd"/><path d="M1151 1675 1165 1651 1179 1675Z" fill="#4472C4" fill-rule="evenodd"/><path d="M1153 1624 1166.5 1600 1180 1624Z" fill="#4472C4" fill-rule="evenodd"/><path d="M1273 1682 1286.5 1658 1300 1682Z" fill="#4472C4" fill-rule="evenodd"/><path d="M1273 1633 1286.5 1609 1300 1633Z" fill="#4472C4" fill-rule="evenodd"/><path d="M1212 1650 1225.5 1626 1239 1650Z" fill="#4472C4" fill-rule="evenodd"/><path d="M1212 1594 1225.5 1570 1239 1594Z" fill="#4472C4" fill-rule="evenodd"/><path d="M1212 1532 1225.5 1508 1239 1532Z" fill="#4472C4" fill-rule="evenodd"/><path d="M1158 1500 1171.5 1476 1185 1500Z" fill="#4472C4" fill-rule="evenodd"/><path d="M546 1630 559.5 1606 573 1630Z" fill="#FF0000" fill-rule="evenodd"/><path d="M1125 1715 1139 1691 1153 1715Z" fill="#FF0000" fill-rule="evenodd"/><path d="M1127 1661 1140.5 1637 1154 1661Z" fill="#FF0000" fill-rule="evenodd"/><path d="M1124 1610 1137.5 1586 1151 1610Z" fill="#FF0000" fill-rule="evenodd"/><path d="M1186 1655 1199.5 1631 1213 1655Z" fill="#FF0000" fill-rule="evenodd"/><path d="M1186 1603 1199.5 1580 1213 1603Z" fill="#FF0000" fill-rule="evenodd"/><path d="M1185 1552 1199 1528 1213 1552Z" fill="#FF0000" fill-rule="evenodd"/><path d="M1127 1480 1140.5 1457 1154 1480Z" fill="#FF0000" fill-rule="evenodd"/></g></svg>