<svg width="763" height="467" xmlns="http://www.w3.org/2000/svg" xmlns:xlink="http://www.w3.org/1999/xlink" xml:space="preserve" overflow="hidden"><defs><clipPath id="clip0"><rect x="1585" y="1402" width="763" height="467"/></clipPath></defs><g clip-path="url(#clip0)" transform="translate(-1585 -1402)"><rect x="1592" y="1402" width="747" height="461" fill="#A9D18E"/><rect x="1590" y="1507" width="143" height="259" stroke="#FFFFFF" stroke-width="10.3125" stroke-miterlimit="8" fill="#A9D18E"/><rect x="2200" y="1507" width="143" height="259" stroke="#FFFFFF" stroke-width="10.3125" stroke-miterlimit="8" fill="#A9D18E"/><rect x="2316.5" y="1605.5" width="26.9998" height="55" stroke="#FFFFFF" stroke-width="9.16667" stroke-miterlimit="8" fill="#A9D18E"/><rect x="1591.5" y="1605.5" width="26.9998" height="55" stroke="#FFFFFF" stroke-width="9.16667" stroke-miterlimit="8" fill="#A9D18E"/><path d="M1894.5 1633C1894.5 1593.51 1926.51 1561.5 1966 1561.5 2005.49 1561.5 2037.5 1593.51 2037.5 1633 2037.5 1672.49 2005.49 1704.5 1966 1704.5 1926.51 1704.5 1894.5 1672.49 1894.5 1633Z" stroke="#FFFFFF" stroke-width="9.16667" stroke-miterlimit="8" fill="#A9D18E" fill-rule="evenodd"/><path d="M1966.5 1402.5 1966.5 1863.94" stroke="#FFFFFF" stroke-width="9.16667" stroke-miterlimit="8" fill="none" fill-rule="evenodd"/><path d="M2057 1543.5C2057 1537.15 2062.37 1532 2069 1532 2075.63 1532 2081 1537.15 2081 1543.5 2081 1549.85 2075.63 1555 2069 1555 2062.37 1555 2057 1549.85 2057 1543.5Z" fill-rule="evenodd"/><path d="M1731 1530 1745 1507 1759 1530Z" fill="#FF0000" fill-rule="evenodd"/><path d="M1785 1637 1798.5 1613 1812 1637Z" fill="#4472C4" fill-rule="evenodd"/><path d="M1730 1756 1744 1732 1758 1756Z" fill="#FF0000" fill-rule="evenodd"/><path d="M2035 1678 2048.5 1654 2062 1678Z" fill="#FF0000" fill-rule="evenodd"/><path d="M1847 1678 1861 1654 1875 1678Z" fill="#4472C4" fill-rule="evenodd"/><path d="M1875 1631 1889 1608 1903 1631Z" fill="#4472C4" fill-rule="evenodd"/><path d="M1850 1582 1863.5 1558 1877 1582Z" fill="#4472C4" fill-rule="evenodd"/><path d="M2078 1596 2092 1572 2106 1596Z" fill="#4472C4" fill-rule="evenodd"/><path d="M1916 1694 1930 1670 1944 1694Z" fill="#4472C4" fill-rule="evenodd"/><path d="M2320 1643 2333.5 1619 2347 1643Z" fill="#4472C4" fill-rule="evenodd"/><path d="M1788 1791 1801.5 1767 1815 1791Z" fill="#4472C4" fill-rule="evenodd"/><path d="M2079 1659 2092.5 1635 2106 1659Z" fill="#4472C4" fill-rule="evenodd"/><path d="M1791 1481 1804.5 1457 1818 1481Z" fill="#4472C4" fill-rule="evenodd"/><path d="M1919 1580 1932.5 1556 1946 1580Z" fill="#4472C4" fill-rule="evenodd"/><path d="M1593 1640 1606.5 1616 1620 1640Z" fill="#FF0000" fill-rule="evenodd"/><path d="M1816 1678 1829.5 1654 1843 1678Z" fill="#FF0000" fill-rule="evenodd"/><path d="M1818 1584 1831.5 1561 1845 1584Z" fill="#FF0000" fill-rule="evenodd"/><path d="M1704 1673 1717.5 1649 1731 1673Z" fill="#FF0000" fill-rule="evenodd"/><path d="M2062 1780 2076 1756 2090 1780Z" fill="#FF0000" fill-rule="evenodd"/><path d="M2035 1582 2049 1559 2063 1582Z" fill="#FF0000" fill-rule="evenodd"/><path d="M2089 1466 2102.5 1443 2116 1466Z" fill="#FF0000" fill-rule="evenodd"/><path d="M1703 1597 1716.5 1573 1730 1597Z" fill="#FF0000" fill-rule="evenodd"/></g></svg>