<svg width="3048" height="655" xmlns="http://www.w3.org/2000/svg" xmlns:xlink="http://www.w3.org/1999/xlink" xml:space="preserve" overflow="hidden"><defs><clipPath id="clip0"><rect x="1275" y="1513" width="3048" height="655"/></clipPath><clipPath id="clip1"><rect x="1752" y="1995" width="91" height="90"/></clipPath><clipPath id="clip2"><rect x="1752" y="1995" width="91" height="90"/></clipPath><clipPath id="clip3"><rect x="1752" y="1995" width="91" height="90"/></clipPath><clipPath id="clip4"><rect x="1659" y="1993" width="97" height="96"/></clipPath><clipPath id="clip5"><rect x="1659" y="1993" width="97" height="96"/></clipPath><clipPath id="clip6"><rect x="1659" y="1993" width="97" height="96"/></clipPath><clipPath id="clip7"><rect x="1751" y="1670" width="91" height="92"/></clipPath><clipPath id="clip8"><rect x="1751" y="1670" width="91" height="92"/></clipPath><clipPath id="clip9"><rect x="1751" y="1670" width="91" height="92"/></clipPath><clipPath id="clip10"><rect x="1657" y="1668" width="98" height="98"/></clipPath><clipPath id="clip11"><rect x="1657" y="1668" width="98" height="98"/></clipPath><clipPath id="clip12"><rect x="1657" y="1668" width="98" height="98"/></clipPath><clipPath id="clip13"><rect x="1975" y="1669" width="91" height="91"/></clipPath><clipPath id="clip14"><rect x="1975" y="1669" width="91" height="91"/></clipPath><clipPath id="clip15"><rect x="1975" y="1669" width="91" height="91"/></clipPath><clipPath id="clip16"><rect x="1883" y="1667" width="96" height="98"/></clipPath><clipPath id="clip17"><rect x="1883" y="1667" width="96" height="98"/></clipPath><clipPath id="clip18"><rect x="1883" y="1667" width="96" height="98"/></clipPath><clipPath id="clip19"><rect x="1753" y="1839" width="90" height="91"/></clipPath><clipPath id="clip20"><rect x="1753" y="1839" width="90" height="91"/></clipPath><clipPath id="clip21"><rect x="1753" y="1839" width="90" height="91"/></clipPath><clipPath id="clip22"><rect x="1661" y="1838" width="96" height="96"/></clipPath><clipPath id="clip23"><rect x="1661" y="1838" width="96" height="96"/></clipPath><clipPath id="clip24"><rect x="1661" y="1838" width="96" height="96"/></clipPath><clipPath id="clip25"><rect x="1975" y="1841" width="91" height="90"/></clipPath><clipPath id="clip26"><rect x="1975" y="1841" width="91" height="90"/></clipPath><clipPath id="clip27"><rect x="1975" y="1841" width="91" height="90"/></clipPath><clipPath id="clip28"><rect x="1884" y="1839" width="96" height="96"/></clipPath><clipPath id="clip29"><rect x="1884" y="1839" width="96" height="96"/></clipPath><clipPath id="clip30"><rect x="1884" y="1839" width="96" height="96"/></clipPath><clipPath id="clip31"><rect x="1274" y="1958" width="162" height="160"/></clipPath><clipPath id="clip32"><rect x="1274" y="1958" width="162" height="160"/></clipPath><clipPath id="clip33"><rect x="1274" y="1958" width="162" height="160"/></clipPath><clipPath id="clip34"><rect x="1461" y="2054" width="116" height="115"/></clipPath><clipPath id="clip35"><rect x="1461" y="2054" width="116" height="115"/></clipPath><clipPath id="clip36"><rect x="1461" y="2054" width="116" height="115"/></clipPath><clipPath id="clip37"><rect x="2801" y="1732" width="152" height="151"/></clipPath><clipPath id="clip38"><rect x="2801" y="1732" width="152" height="151"/></clipPath><clipPath id="clip39"><rect x="2801" y="1732" width="152" height="151"/></clipPath><clipPath id="clip40"><rect x="2668" y="1741" width="134" height="134"/></clipPath><clipPath id="clip41"><rect x="2668" y="1741" width="134" height="134"/></clipPath><clipPath id="clip42"><rect x="2668" y="1741" width="134" height="134"/></clipPath><clipPath id="clip43"><rect x="2953" y="1741" width="134" height="134"/></clipPath><clipPath id="clip44"><rect x="2953" y="1741" width="134" height="134"/></clipPath><clipPath id="clip45"><rect x="2953" y="1741" width="134" height="134"/></clipPath><clipPath id="clip46"><rect x="2740" y="1801" width="150" height="151"/></clipPath><clipPath id="clip47"><rect x="2740" y="1801" width="150" height="151"/></clipPath><clipPath id="clip48"><rect x="2740" y="1801" width="150" height="151"/></clipPath><clipPath id="clip49"><rect x="2607" y="1809" width="134" height="134"/></clipPath><clipPath id="clip50"><rect x="2607" y="1809" width="134" height="134"/></clipPath><clipPath id="clip51"><rect x="2607" y="1809" width="134" height="134"/></clipPath><clipPath id="clip52"><rect x="2891" y="1809" width="134" height="134"/></clipPath><clipPath id="clip53"><rect x="2891" y="1809" width="134" height="134"/></clipPath><clipPath id="clip54"><rect x="2891" y="1809" width="134" height="134"/></clipPath><clipPath id="clip55"><rect x="2667" y="1866" width="151" height="152"/></clipPath><clipPath id="clip56"><rect x="2667" y="1866" width="151" height="152"/></clipPath><clipPath id="clip57"><rect x="2667" y="1866" width="151" height="152"/></clipPath><clipPath id="clip58"><rect x="2534" y="1875" width="134" height="134"/></clipPath><clipPath id="clip59"><rect x="2534" y="1875" width="134" height="134"/></clipPath><clipPath id="clip60"><rect x="2534" y="1875" width="134" height="134"/></clipPath><clipPath id="clip61"><rect x="2818" y="1875" width="135" height="134"/></clipPath><clipPath id="clip62"><rect x="2818" y="1875" width="135" height="134"/></clipPath><clipPath id="clip63"><rect x="2818" y="1875" width="135" height="134"/></clipPath><clipPath id="clip64"><rect x="3693" y="1688" width="97" height="96"/></clipPath><clipPath id="clip65"><rect x="3693" y="1688" width="97" height="96"/></clipPath><clipPath id="clip66"><rect x="3693" y="1688" width="97" height="96"/></clipPath><clipPath id="clip67"><rect x="3796" y="1688" width="95" height="97"/></clipPath><clipPath id="clip68"><rect x="3796" y="1688" width="95" height="97"/></clipPath><clipPath id="clip69"><rect x="3796" y="1688" width="95" height="97"/></clipPath><clipPath id="clip70"><rect x="3898" y="1688" width="99" height="100"/></clipPath><clipPath id="clip71"><rect x="3898" y="1688" width="99" height="100"/></clipPath><clipPath id="clip72"><rect x="3898" y="1688" width="99" height="100"/></clipPath><clipPath id="clip73"><rect x="3694" y="1809" width="96" height="97"/></clipPath><clipPath id="clip74"><rect x="3694" y="1809" width="96" height="97"/></clipPath><clipPath id="clip75"><rect x="3694" y="1809" width="96" height="97"/></clipPath><clipPath id="clip76"><rect x="3796" y="1810" width="96" height="97"/></clipPath><clipPath id="clip77"><rect x="3796" y="1810" width="96" height="97"/></clipPath><clipPath id="clip78"><rect x="3796" y="1810" width="96" height="97"/></clipPath><clipPath id="clip79"><rect x="3898" y="1810" width="99" height="99"/></clipPath><clipPath id="clip80"><rect x="3898" y="1810" width="99" height="99"/></clipPath><clipPath id="clip81"><rect x="3898" y="1810" width="99" height="99"/></clipPath><clipPath id="clip82"><rect x="3693" y="1930" width="97" height="97"/></clipPath><clipPath id="clip83"><rect x="3693" y="1930" width="97" height="97"/></clipPath><clipPath id="clip84"><rect x="3693" y="1930" width="97" height="97"/></clipPath><clipPath id="clip85"><rect x="3796" y="1931" width="95" height="97"/></clipPath><clipPath id="clip86"><rect x="3796" y="1931" width="95" height="97"/></clipPath><clipPath id="clip87"><rect x="3796" y="1931" width="95" height="97"/></clipPath><clipPath id="clip88"><rect x="3898" y="1931" width="99" height="99"/></clipPath><clipPath id="clip89"><rect x="3898" y="1931" width="99" height="99"/></clipPath><clipPath id="clip90"><rect x="3898" y="1931" width="99" height="99"/></clipPath></defs><g clip-path="url(#clip0)" transform="translate(-1275 -1513)"><path d="M1585.5 1676.84C1585.5 1626.94 1625.94 1586.5 1675.84 1586.5L2254.16 1586.5C2304.06 1586.5 2344.5 1626.94 2344.5 1676.84L2344.5 2038.16C2344.5 2088.06 2304.06 2128.5 2254.16 2128.5L1675.84 2128.5C1625.94 2128.5 1585.5 2088.06 1585.5 2038.16Z" stroke="#000000" stroke-width="4.58333" stroke-miterlimit="8" fill="#DAE3F3" fill-rule="evenodd"/><text font-family="Times New Roman,Times New Roman_MSFontService,sans-serif" font-weight="700" font-size="83" transform="matrix(1 0 0 1 2025.56 2082)">Storage</text><rect x="1660.5" y="1997.5" width="182" height="86" stroke="#000000" stroke-width="4.58333" stroke-miterlimit="8" fill="#FFFFFF"/><g clip-path="url(#clip1)"><g clip-path="url(#clip2)"><g clip-path="url(#clip3)"><path d="M60.3935 67.4998 29.4562 67.4998C25.5729 67.4998 22.4249 70.6478 22.4249 74.531 22.4249 78.4142 25.5729 81.5622 29.4562 81.5622L60.3935 81.5622C64.2768 81.5622 67.4248 78.4142 67.4248 74.531 67.4248 70.6478 64.2768 67.4998 60.3935 67.4998ZM31.3311 77.3435C29.7778 77.3435 28.5187 76.0843 28.5187 74.531 28.5187 72.9777 29.7778 71.7185 31.3311 71.7185 32.8845 71.7185 34.1436 72.9777 34.1436 74.531 34.1436 76.0843 32.8845 77.3435 31.3311 77.3435ZM44.9249 77.3435C43.3715 77.3435 42.1124 76.0843 42.1124 74.531 42.1124 72.9777 43.3715 71.7185 44.9249 71.7185 46.4782 71.7185 47.7373 72.9777 47.7373 74.531 47.7373 76.0843 46.4782 77.3435 44.9249 77.3435ZM58.5186 77.3435C56.9652 77.3435 55.7061 76.0843 55.7061 74.531 55.7061 72.9777 56.9652 71.7185 58.5186 71.7185 60.0719 71.7185 61.331 72.9777 61.331 74.531 61.331 76.0843 60.0719 77.3435 58.5186 77.3435Z" transform="matrix(1 0 0 1 1752 1995)"/><path d="M51.403 26.2499C51.403 27.0266 50.7734 27.6562 49.9967 27.6562 49.2201 27.6562 48.5905 27.0266 48.5905 26.2499 48.5905 25.4733 49.2201 24.8437 49.9967 24.8437 50.7734 24.8437 51.403 25.4733 51.403 26.2499Z" transform="matrix(1 0 0 1 1752 1995)"/><path d="M53.0717 16.8749 46.8748 16.8749 46.8748 12.6093C48.6685 11.5738 49.283 9.28035 48.2474 7.48676 47.2119 5.69317 44.9185 5.07864 43.1249 6.11417 41.3312 7.1497 40.7167 9.44312 41.7523 11.2367 42.0814 11.8068 42.5548 12.2802 43.1249 12.6093L43.1249 16.8749 36.928 16.8749C34.6572 16.8801 32.8175 18.7198 32.8124 20.9906L32.8124 31.5093C32.8175 33.7801 34.6572 35.6197 36.928 35.6249L53.0717 35.6249C55.3425 35.6197 57.1822 33.7801 57.1873 31.5093L57.1873 20.9906C57.1822 18.7198 55.3425 16.8801 53.0717 16.8749ZM40.3124 29.0624C38.759 29.0624 37.4999 27.8033 37.4999 26.2499 37.4999 24.6966 38.759 23.4374 40.3124 23.4374 41.8657 23.4374 43.1249 24.6966 43.1249 26.2499 43.1249 27.8033 41.8657 29.0624 40.3124 29.0624ZM49.6873 29.0624C48.134 29.0624 46.8748 27.8033 46.8748 26.2499 46.8748 24.6966 48.134 23.4374 49.6873 23.4374 51.2407 23.4374 52.4998 24.6966 52.4998 26.2499 52.4998 27.8033 51.2407 29.0624 49.6873 29.0624Z" transform="matrix(1 0 0 1 1752 1995)"/><path d="M42.028 26.2499C42.028 27.0266 41.3984 27.6562 40.6217 27.6562 39.8451 27.6562 39.2155 27.0266 39.2155 26.2499 39.2155 25.4733 39.8451 24.8437 40.6217 24.8437 41.3984 24.8437 42.028 25.4733 42.028 26.2499Z" transform="matrix(1 0 0 1 1752 1995)"/><path d="M69.3748 55.1436 69.3748 47.3342C69.3748 45.0094 67.4902 43.1249 65.1654 43.1249L59.9998 43.1249 59.9998 38.4374 29.9999 38.4374 29.9999 44.0624 22.9593 44.0624C22.7056 44.0624 22.4999 43.8567 22.4999 43.603L22.4999 35.8311C25.7227 34.8794 27.5636 31.4953 26.6119 28.2727 26.3567 27.4087 25.9129 26.6122 25.3124 25.9405L22.4999 28.4343C22.8933 28.8621 23.1167 29.4188 23.128 29.9999 23.121 31.2943 22.066 32.3379 20.7716 32.3309 19.4772 32.3238 18.4336 31.2688 18.4407 29.9744 18.4437 29.4153 18.6464 28.8757 19.0124 28.453L16.1999 25.9874C13.9904 28.526 14.2571 32.375 16.7956 34.5846 17.3699 35.0845 18.0328 35.4724 18.7499 35.728L18.7499 43.603C18.7499 45.9278 20.6345 47.8123 22.9593 47.8123L29.9999 47.8123 29.9999 64.6873 59.9998 64.6873 59.9998 46.8748 65.1654 46.8748C65.4191 46.8748 65.6248 47.0805 65.6248 47.3342L65.6248 55.1436C62.4227 56.1794 60.6666 59.615 61.7025 62.8171 61.9618 63.6184 62.3843 64.3574 62.9435 64.9873L65.756 62.4935C65.3681 62.0683 65.154 61.5129 65.156 60.9373 65.1572 59.6429 66.2073 58.5944 67.5017 58.5955 68.7961 58.5966 69.8446 59.6468 69.8435 60.9412 69.843 61.509 69.6365 62.0572 69.2623 62.4842L72.0748 64.9498C74.293 62.4257 74.045 58.5813 71.5209 56.3631 70.8964 55.8142 70.1659 55.3991 69.3748 55.1436ZM56.2498 51.5623 53.6436 51.5623C53.5529 51.5785 53.4667 51.6137 53.3904 51.6655L50.5217 54.5998 48.3373 49.4248 44.2592 57.8623 41.3999 46.8748 39.1967 51.5623 34.6874 51.5623 34.6874 49.6873 38.0061 49.6873 41.9061 41.3905 44.7936 52.4342 48.4592 44.9342 51.1592 51.328 52.0967 50.3905C52.5084 49.9738 53.059 49.7235 53.6436 49.6873L56.2498 49.6873Z" transform="matrix(1 0 0 1 1752 1995)"/></g></g></g><g clip-path="url(#clip4)"><g clip-path="url(#clip5)"><g clip-path="url(#clip6)"><path d="M1724 2023C1724 2031.84 1716.84 2039 1708 2039 1699.16 2039 1692 2031.84 1692 2023 1692 2014.16 1699.16 2007 1708 2007 1716.84 2007 1724 2014.16 1724 2023Z"/><path d="M1740 2075 1740 2059C1740 2056.6 1738.8 2054.2 1736.8 2052.6 1732.4 2049 1726.8 2046.6 1721.2 2045 1717.2 2043.8 1712.8 2043 1708 2043 1703.6 2043 1699.2 2043.8 1694.8 2045 1689.2 2046.6 1683.6 2049.4 1679.2 2052.6 1677.2 2054.2 1676 2056.6 1676 2059L1676 2075 1740 2075Z"/></g></g></g><rect x="1658.5" y="1673.5" width="183" height="86.0002" stroke="#000000" stroke-width="4.58333" stroke-miterlimit="8" fill="#FFFFFF"/><g clip-path="url(#clip7)"><g clip-path="url(#clip8)"><g clip-path="url(#clip9)"><path d="M1811.39 1738.5 1780.46 1738.5C1776.57 1738.5 1773.43 1741.65 1773.43 1745.53 1773.43 1749.41 1776.57 1752.56 1780.46 1752.56L1811.39 1752.56C1815.28 1752.56 1818.43 1749.41 1818.43 1745.53 1818.43 1741.65 1815.28 1738.5 1811.39 1738.5ZM1782.33 1748.34C1780.78 1748.34 1779.52 1747.08 1779.52 1745.53 1779.52 1743.98 1780.78 1742.72 1782.33 1742.72 1783.88 1742.72 1785.14 1743.98 1785.14 1745.53 1785.14 1747.08 1783.88 1748.34 1782.33 1748.34ZM1795.93 1748.34C1794.37 1748.34 1793.11 1747.08 1793.11 1745.53 1793.11 1743.98 1794.37 1742.72 1795.93 1742.72 1797.48 1742.72 1798.74 1743.98 1798.74 1745.53 1798.74 1747.08 1797.48 1748.34 1795.93 1748.34ZM1809.52 1748.34C1807.97 1748.34 1806.71 1747.08 1806.71 1745.53 1806.71 1743.98 1807.97 1742.72 1809.52 1742.72 1811.07 1742.72 1812.33 1743.98 1812.33 1745.53 1812.33 1747.08 1811.07 1748.34 1809.52 1748.34Z"/><path d="M1802.4 1697.25C1802.4 1698.03 1801.77 1698.66 1801 1698.66 1800.22 1698.66 1799.59 1698.03 1799.59 1697.25 1799.59 1696.47 1800.22 1695.84 1801 1695.84 1801.77 1695.84 1802.4 1696.47 1802.4 1697.25Z"/><path d="M1804.07 1687.88 1797.88 1687.88 1797.88 1683.61C1799.67 1682.57 1800.28 1680.28 1799.25 1678.49 1798.21 1676.69 1795.92 1676.08 1794.13 1677.11 1792.33 1678.15 1791.72 1680.44 1792.75 1682.24 1793.08 1682.81 1793.56 1683.28 1794.13 1683.61L1794.13 1687.88 1787.93 1687.88C1785.66 1687.88 1783.82 1689.72 1783.81 1691.99L1783.81 1702.51C1783.82 1704.78 1785.66 1706.62 1787.93 1706.62L1804.07 1706.62C1806.34 1706.62 1808.18 1704.78 1808.19 1702.51L1808.19 1691.99C1808.18 1689.72 1806.34 1687.88 1804.07 1687.88ZM1791.31 1700.06C1789.76 1700.06 1788.5 1698.8 1788.5 1697.25 1788.5 1695.7 1789.76 1694.44 1791.31 1694.44 1792.87 1694.44 1794.13 1695.7 1794.13 1697.25 1794.13 1698.8 1792.87 1700.06 1791.31 1700.06ZM1800.69 1700.06C1799.13 1700.06 1797.88 1698.8 1797.88 1697.25 1797.88 1695.7 1799.13 1694.44 1800.69 1694.44 1802.24 1694.44 1803.5 1695.7 1803.5 1697.25 1803.5 1698.8 1802.24 1700.06 1800.69 1700.06Z"/><path d="M1793.03 1697.25C1793.03 1698.03 1792.4 1698.66 1791.62 1698.66 1790.85 1698.66 1790.22 1698.03 1790.22 1697.25 1790.22 1696.47 1790.85 1695.84 1791.62 1695.84 1792.4 1695.84 1793.03 1696.47 1793.03 1697.25Z"/><path d="M1820.38 1726.14 1820.38 1718.33C1820.38 1716.01 1818.49 1714.12 1816.17 1714.12L1811 1714.12 1811 1709.44 1781 1709.44 1781 1715.06 1773.96 1715.06C1773.71 1715.06 1773.5 1714.86 1773.5 1714.6L1773.5 1706.83C1776.72 1705.88 1778.56 1702.5 1777.61 1699.27 1777.36 1698.41 1776.91 1697.61 1776.31 1696.94L1773.5 1699.43C1773.89 1699.86 1774.12 1700.42 1774.13 1701 1774.12 1702.29 1773.07 1703.34 1771.77 1703.33 1770.48 1703.32 1769.43 1702.27 1769.44 1700.97 1769.44 1700.42 1769.65 1699.88 1770.01 1699.45L1767.2 1696.99C1764.99 1699.53 1765.26 1703.38 1767.8 1705.58 1768.37 1706.08 1769.03 1706.47 1769.75 1706.73L1769.75 1714.6C1769.75 1716.93 1771.63 1718.81 1773.96 1718.81L1781 1718.81 1781 1735.69 1811 1735.69 1811 1717.88 1816.17 1717.88C1816.42 1717.88 1816.63 1718.08 1816.63 1718.33L1816.63 1726.14C1813.42 1727.18 1811.67 1730.62 1812.7 1733.82 1812.96 1734.62 1813.38 1735.36 1813.94 1735.99L1816.76 1733.49C1816.37 1733.07 1816.15 1732.51 1816.16 1731.94 1816.16 1730.64 1817.21 1729.59 1818.5 1729.6 1819.8 1729.6 1820.85 1730.65 1820.84 1731.94 1820.84 1732.51 1820.64 1733.06 1820.26 1733.48L1823.08 1735.95C1825.29 1733.43 1825.05 1729.58 1822.52 1727.36 1821.9 1726.81 1821.17 1726.4 1820.38 1726.14ZM1807.25 1722.56 1804.64 1722.56C1804.55 1722.58 1804.47 1722.61 1804.39 1722.67L1801.52 1725.6 1799.34 1720.43 1795.26 1728.86 1792.4 1717.88 1790.2 1722.56 1785.69 1722.56 1785.69 1720.69 1789.01 1720.69 1792.91 1712.39 1795.79 1723.43 1799.46 1715.93 1802.16 1722.33 1803.1 1721.39C1803.51 1720.97 1804.06 1720.72 1804.64 1720.69L1807.25 1720.69Z"/></g></g></g><g clip-path="url(#clip10)"><g clip-path="url(#clip11)"><g clip-path="url(#clip12)"><path d="M1722 1699C1722 1707.84 1714.84 1715 1706 1715 1697.16 1715 1690 1707.84 1690 1699 1690 1690.16 1697.16 1683 1706 1683 1714.84 1683 1722 1690.16 1722 1699Z"/><path d="M1738 1751 1738 1735C1738 1732.6 1736.8 1730.2 1734.8 1728.6 1730.4 1725 1724.8 1722.6 1719.2 1721 1715.2 1719.8 1710.8 1719 1706 1719 1701.6 1719 1697.2 1719.8 1692.8 1721 1687.2 1722.6 1681.6 1725.4 1677.2 1728.6 1675.2 1730.2 1674 1732.6 1674 1735L1674 1751 1738 1751Z"/></g></g></g><rect x="1884.5" y="1671.5" width="182" height="87" stroke="#000000" stroke-width="4.58333" stroke-miterlimit="8" fill="#FFFFFF"/><g clip-path="url(#clip13)"><g clip-path="url(#clip14)"><g clip-path="url(#clip15)"><path d="M2036.39 1737.5 2005.46 1737.5C2001.57 1737.5 1998.42 1740.65 1998.42 1744.53 1998.42 1748.41 2001.57 1751.56 2005.46 1751.56L2036.39 1751.56C2040.28 1751.56 2043.42 1748.41 2043.42 1744.53 2043.42 1740.65 2040.28 1737.5 2036.39 1737.5ZM2007.33 1747.34C2005.78 1747.34 2004.52 1746.08 2004.52 1744.53 2004.52 1742.98 2005.78 1741.72 2007.33 1741.72 2008.88 1741.72 2010.14 1742.98 2010.14 1744.53 2010.14 1746.08 2008.88 1747.34 2007.33 1747.34ZM2020.92 1747.34C2019.37 1747.34 2018.11 1746.08 2018.11 1744.53 2018.11 1742.98 2019.37 1741.72 2020.92 1741.72 2022.48 1741.72 2023.74 1742.98 2023.74 1744.53 2023.74 1746.08 2022.48 1747.34 2020.92 1747.34ZM2034.52 1747.34C2032.97 1747.34 2031.71 1746.08 2031.71 1744.53 2031.71 1742.98 2032.97 1741.72 2034.52 1741.72 2036.07 1741.72 2037.33 1742.98 2037.33 1744.53 2037.33 1746.08 2036.07 1747.34 2034.52 1747.34Z"/><path d="M2027.4 1696.25C2027.4 1697.03 2026.77 1697.66 2026 1697.66 2025.22 1697.66 2024.59 1697.03 2024.59 1696.25 2024.59 1695.47 2025.22 1694.84 2026 1694.84 2026.77 1694.84 2027.4 1695.47 2027.4 1696.25Z"/><path d="M2029.07 1686.87 2022.87 1686.87 2022.87 1682.61C2024.67 1681.57 2025.28 1679.28 2024.25 1677.49 2023.21 1675.69 2020.92 1675.08 2019.12 1676.11 2017.33 1677.15 2016.72 1679.44 2017.75 1681.24 2018.08 1681.81 2018.55 1682.28 2019.12 1682.61L2019.12 1686.87 2012.93 1686.87C2010.66 1686.88 2008.82 1688.72 2008.81 1690.99L2008.81 1701.51C2008.82 1703.78 2010.66 1705.62 2012.93 1705.62L2029.07 1705.62C2031.34 1705.62 2033.18 1703.78 2033.19 1701.51L2033.19 1690.99C2033.18 1688.72 2031.34 1686.88 2029.07 1686.87ZM2016.31 1699.06C2014.76 1699.06 2013.5 1697.8 2013.5 1696.25 2013.5 1694.7 2014.76 1693.44 2016.31 1693.44 2017.87 1693.44 2019.12 1694.7 2019.12 1696.25 2019.12 1697.8 2017.87 1699.06 2016.31 1699.06ZM2025.69 1699.06C2024.13 1699.06 2022.87 1697.8 2022.87 1696.25 2022.87 1694.7 2024.13 1693.44 2025.69 1693.44 2027.24 1693.44 2028.5 1694.7 2028.5 1696.25 2028.5 1697.8 2027.24 1699.06 2025.69 1699.06Z"/><path d="M2018.03 1696.25C2018.03 1697.03 2017.4 1697.66 2016.62 1697.66 2015.85 1697.66 2015.22 1697.03 2015.22 1696.25 2015.22 1695.47 2015.85 1694.84 2016.62 1694.84 2017.4 1694.84 2018.03 1695.47 2018.03 1696.25Z"/><path d="M2045.37 1725.14 2045.37 1717.33C2045.37 1715.01 2043.49 1713.12 2041.17 1713.12L2036 1713.12 2036 1708.44 2006 1708.44 2006 1714.06 1998.96 1714.06C1998.71 1714.06 1998.5 1713.86 1998.5 1713.6L1998.5 1705.83C2001.72 1704.88 2003.56 1701.5 2002.61 1698.27 2002.36 1697.41 2001.91 1696.61 2001.31 1695.94L1998.5 1698.43C1998.89 1698.86 1999.12 1699.42 1999.13 1700 1999.12 1701.29 1998.07 1702.34 1996.77 1702.33 1995.48 1702.32 1994.43 1701.27 1994.44 1699.97 1994.44 1699.42 1994.65 1698.88 1995.01 1698.45L1992.2 1695.99C1989.99 1698.53 1990.26 1702.38 1992.8 1704.58 1993.37 1705.08 1994.03 1705.47 1994.75 1705.73L1994.75 1713.6C1994.75 1715.93 1996.63 1717.81 1998.96 1717.81L2006 1717.81 2006 1734.69 2036 1734.69 2036 1716.87 2041.17 1716.87C2041.42 1716.87 2041.62 1717.08 2041.62 1717.33L2041.62 1725.14C2038.42 1726.18 2036.67 1729.62 2037.7 1732.82 2037.96 1733.62 2038.38 1734.36 2038.94 1734.99L2041.76 1732.49C2041.37 1732.07 2041.15 1731.51 2041.16 1730.94 2041.16 1729.64 2042.21 1728.59 2043.5 1728.6 2044.8 1728.6 2045.84 1729.65 2045.84 1730.94 2045.84 1731.51 2045.64 1732.06 2045.26 1732.48L2048.07 1734.95C2050.29 1732.43 2050.05 1728.58 2047.52 1726.36 2046.9 1725.81 2046.17 1725.4 2045.37 1725.14ZM2032.25 1721.56 2029.64 1721.56C2029.55 1721.58 2029.47 1721.61 2029.39 1721.67L2026.52 1724.6 2024.34 1719.42 2020.26 1727.86 2017.4 1716.87 2015.2 1721.56 2010.69 1721.56 2010.69 1719.69 2014.01 1719.69 2017.91 1711.39 2020.79 1722.43 2024.46 1714.93 2027.16 1721.33 2028.1 1720.39C2028.51 1719.97 2029.06 1719.72 2029.64 1719.69L2032.25 1719.69Z"/></g></g></g><g clip-path="url(#clip16)"><g clip-path="url(#clip17)"><g clip-path="url(#clip18)"><path d="M79.9999 65.9999C79.9477 63.4945 78.7729 61.145 76.7999 59.5999 72.3999 55.9999 66.7999 53.5999 61.1999 51.9999 56.9216 50.6903 52.4741 50.0164 48 50 43.5307 50.077 39.0916 50.7496 34.8 51.9999 29.2073 53.6319 23.9323 56.2018 19.2 59.5999 17.227 61.145 16.0522 63.4945 16 65.9999L16 81.9999 79.9999 81.9999Z" transform="matrix(1 0 0 1 1883 1668)"/><path d="M45 25.75C47.5999 24.22 53.9999 19.28 53.9999 19.28L53.9999 19.28C55.0098 19.3675 55.9707 19.7539 56.7599 20.39 58.6804 21.7385 60.3067 23.4635 61.5399 25.46 62.6499 27.12 63.5999 28.46 63.8899 28.86L63.8899 28.86 63.9999 29 63.9999 29C64.4999 28 64.4799 25.21 64.1299 22.67 63.6399 19.17 63.2399 18.13 60.9999 16.25 59.5726 14.9565 57.6678 14.3215 55.7499 14.5 53.1477 12.4807 50.0131 11.2644 46.73 11 41.73 10.82 36.27 13.43 33.95 16.49 30.44 21.09 30.83 24.09 30.83 25.16 30.83 26.23 29.6 28.09 30.46 28.09 31.02 28.09 31.57 28.09 32.13 28.09L32.13 28.09C35.3 28 41.77 27.65 45 25.75Z" transform="matrix(1 0 0 1 1883 1668)"/><path d="M62.4199 30.17C62.3699 30.1 61.2699 28.57 59.9299 26.58 58.8294 24.7751 57.3691 23.216 55.6399 22 55.3033 21.7549 54.9371 21.5533 54.5499 21.4 52.7699 22.75 48.1899 26.19 46.01 27.46 42.55 29.46 36.24 29.99 32.01 30.08 32.1196 38.9159 39.3713 45.9899 48.2071 45.8803 56.0991 45.7825 62.7408 39.9443 63.8499 32.13Z" transform="matrix(1 0 0 1 1883 1668)"/></g></g></g><rect x="1661.5" y="1841.5" width="182" height="87" stroke="#000000" stroke-width="4.58333" stroke-miterlimit="8" fill="#FFFFFF"/><g clip-path="url(#clip19)"><g clip-path="url(#clip20)"><g clip-path="url(#clip21)"><path d="M60.3935 67.4998 29.4562 67.4998C25.5729 67.4998 22.4249 70.6478 22.4249 74.531 22.4249 78.4142 25.5729 81.5622 29.4562 81.5622L60.3935 81.5622C64.2768 81.5622 67.4248 78.4142 67.4248 74.531 67.4248 70.6478 64.2768 67.4998 60.3935 67.4998ZM31.3311 77.3435C29.7778 77.3435 28.5187 76.0843 28.5187 74.531 28.5187 72.9777 29.7778 71.7185 31.3311 71.7185 32.8845 71.7185 34.1436 72.9777 34.1436 74.531 34.1436 76.0843 32.8845 77.3435 31.3311 77.3435ZM44.9249 77.3435C43.3715 77.3435 42.1124 76.0843 42.1124 74.531 42.1124 72.9777 43.3715 71.7185 44.9249 71.7185 46.4782 71.7185 47.7373 72.9777 47.7373 74.531 47.7373 76.0843 46.4782 77.3435 44.9249 77.3435ZM58.5186 77.3435C56.9652 77.3435 55.7061 76.0843 55.7061 74.531 55.7061 72.9777 56.9652 71.7185 58.5186 71.7185 60.0719 71.7185 61.331 72.9777 61.331 74.531 61.331 76.0843 60.0719 77.3435 58.5186 77.3435Z" transform="matrix(1 0 0 1 1753 1839)"/><path d="M51.403 26.2499C51.403 27.0266 50.7734 27.6562 49.9967 27.6562 49.2201 27.6562 48.5905 27.0266 48.5905 26.2499 48.5905 25.4733 49.2201 24.8437 49.9967 24.8437 50.7734 24.8437 51.403 25.4733 51.403 26.2499Z" transform="matrix(1 0 0 1 1753 1839)"/><path d="M53.0717 16.8749 46.8748 16.8749 46.8748 12.6093C48.6685 11.5738 49.283 9.28035 48.2474 7.48676 47.2119 5.69317 44.9185 5.07864 43.1249 6.11417 41.3312 7.1497 40.7167 9.44312 41.7523 11.2367 42.0814 11.8068 42.5548 12.2802 43.1249 12.6093L43.1249 16.8749 36.928 16.8749C34.6572 16.8801 32.8175 18.7198 32.8124 20.9906L32.8124 31.5093C32.8175 33.7801 34.6572 35.6197 36.928 35.6249L53.0717 35.6249C55.3425 35.6197 57.1822 33.7801 57.1873 31.5093L57.1873 20.9906C57.1822 18.7198 55.3425 16.8801 53.0717 16.8749ZM40.3124 29.0624C38.759 29.0624 37.4999 27.8033 37.4999 26.2499 37.4999 24.6966 38.759 23.4374 40.3124 23.4374 41.8657 23.4374 43.1249 24.6966 43.1249 26.2499 43.1249 27.8033 41.8657 29.0624 40.3124 29.0624ZM49.6873 29.0624C48.134 29.0624 46.8748 27.8033 46.8748 26.2499 46.8748 24.6966 48.134 23.4374 49.6873 23.4374 51.2407 23.4374 52.4998 24.6966 52.4998 26.2499 52.4998 27.8033 51.2407 29.0624 49.6873 29.0624Z" transform="matrix(1 0 0 1 1753 1839)"/><path d="M42.028 26.2499C42.028 27.0266 41.3984 27.6562 40.6217 27.6562 39.8451 27.6562 39.2155 27.0266 39.2155 26.2499 39.2155 25.4733 39.8451 24.8437 40.6217 24.8437 41.3984 24.8437 42.028 25.4733 42.028 26.2499Z" transform="matrix(1 0 0 1 1753 1839)"/><path d="M69.3748 55.1436 69.3748 47.3342C69.3748 45.0094 67.4902 43.1249 65.1654 43.1249L59.9998 43.1249 59.9998 38.4374 29.9999 38.4374 29.9999 44.0624 22.9593 44.0624C22.7056 44.0624 22.4999 43.8567 22.4999 43.603L22.4999 35.8311C25.7227 34.8794 27.5636 31.4953 26.6119 28.2727 26.3567 27.4087 25.9129 26.6122 25.3124 25.9405L22.4999 28.4343C22.8933 28.8621 23.1167 29.4188 23.128 29.9999 23.121 31.2943 22.066 32.3379 20.7716 32.3309 19.4772 32.3238 18.4336 31.2688 18.4407 29.9744 18.4437 29.4153 18.6464 28.8757 19.0124 28.453L16.1999 25.9874C13.9904 28.526 14.2571 32.375 16.7956 34.5846 17.3699 35.0845 18.0328 35.4724 18.7499 35.728L18.7499 43.603C18.7499 45.9278 20.6345 47.8123 22.9593 47.8123L29.9999 47.8123 29.9999 64.6873 59.9998 64.6873 59.9998 46.8748 65.1654 46.8748C65.4191 46.8748 65.6248 47.0805 65.6248 47.3342L65.6248 55.1436C62.4227 56.1794 60.6666 59.615 61.7025 62.8171 61.9618 63.6184 62.3843 64.3574 62.9435 64.9873L65.756 62.4935C65.3681 62.0683 65.154 61.5129 65.156 60.9373 65.1572 59.6429 66.2073 58.5944 67.5017 58.5955 68.7961 58.5966 69.8446 59.6468 69.8435 60.9412 69.843 61.509 69.6365 62.0572 69.2623 62.4842L72.0748 64.9498C74.293 62.4257 74.045 58.5813 71.5209 56.3631 70.8964 55.8142 70.1659 55.3991 69.3748 55.1436ZM56.2498 51.5623 53.6436 51.5623C53.5529 51.5785 53.4667 51.6137 53.3904 51.6655L50.5217 54.5998 48.3373 49.4248 44.2592 57.8623 41.3999 46.8748 39.1967 51.5623 34.6874 51.5623 34.6874 49.6873 38.0061 49.6873 41.9061 41.3905 44.7936 52.4342 48.4592 44.9342 51.1592 51.328 52.0967 50.3905C52.5084 49.9738 53.059 49.7235 53.6436 49.6873L56.2498 49.6873Z" transform="matrix(1 0 0 1 1753 1839)"/></g></g></g><g clip-path="url(#clip22)"><g clip-path="url(#clip23)"><g clip-path="url(#clip24)"><path d="M1721.5 1858.5C1721.5 1865.4 1715.9 1871 1709 1871 1702.1 1871 1696.5 1865.4 1696.5 1858.5 1696.5 1851.6 1702.1 1846 1709 1846 1715.9 1846 1721.5 1851.6 1721.5 1858.5Z"/><path d="M1718 1900.5C1718 1900.6 1718 1900.7 1718 1900.8 1714.5 1901.1 1711.9 1904 1712 1907.5 1712 1908.5 1712.3 1909.5 1712.8 1910.3 1711.7 1910.7 1710.3 1910.9 1708.8 1910.9 1707.2 1910.9 1705.9 1910.7 1704.9 1910.3 1706.4 1908.1 1706.4 1905.1 1704.8 1902.8 1703.6 1901.2 1701.9 1900.2 1700 1900L1700 1898 1718 1898 1718 1900.5ZM1737.2 1882.2 1720 1873.2C1719.6 1873.1 1719.2 1873 1718.8 1873L1700 1873C1699.5 1873 1699.1 1873.1 1698.6 1873.2L1680.6 1883.2C1678.5 1884 1677.5 1886.3 1678.2 1888.3 1678.8 1890 1680.4 1891 1682 1891 1682.5 1891 1682.9 1890.9 1683.4 1890.8L1696 1884.2C1696 1884.2 1696 1900.7 1696 1901 1695.8 1901.1 1687.8 1906.7 1687.8 1906.7 1686.1 1907.9 1685.6 1910.3 1686.7 1912.1L1693.7 1923.1C1694.9 1925 1697.4 1925.5 1699.2 1924.3 1701 1923.1 1701.6 1920.6 1700.4 1918.8L1697 1913.3 1699.2 1913.3C1699.9 1913.3 1700.6 1913.2 1701.3 1913 1703.1 1914.2 1705.5 1914.9 1708.7 1914.9 1711.7 1914.9 1714.1 1914.2 1716 1913.2 1716.8 1913.6 1717.8 1913.7 1718.8 1913.7L1720.6 1913.6 1717 1918.6C1715.7 1920.4 1716.1 1922.9 1717.9 1924.2 1719.7 1925.5 1722.2 1925.1 1723.5 1923.3L1731.5 1912.3C1731.6 1912.2 1731.7 1912.1 1731.7 1911.9 1732.8 1910 1732.1 1907.5 1730.2 1906.4L1722 1901.8C1722 1901.4 1722 1883.8 1722 1883.8L1734.8 1889.9C1735.2 1890 1735.6 1890.1 1736 1890.1 1737.7 1890.1 1739.3 1889 1739.8 1887.3 1740.5 1885.1 1739.3 1882.9 1737.2 1882.2Z"/></g></g></g><rect x="1884.5" y="1843.5" width="182" height="85.9999" stroke="#000000" stroke-width="4.58333" stroke-miterlimit="8" fill="#FFFFFF"/><g clip-path="url(#clip25)"><g clip-path="url(#clip26)"><g clip-path="url(#clip27)"><path d="M60.3935 67.4998 29.4562 67.4998C25.5729 67.4998 22.4249 70.6478 22.4249 74.531 22.4249 78.4142 25.5729 81.5622 29.4562 81.5622L60.3935 81.5622C64.2768 81.5622 67.4248 78.4142 67.4248 74.531 67.4248 70.6478 64.2768 67.4998 60.3935 67.4998ZM31.3311 77.3435C29.7778 77.3435 28.5187 76.0843 28.5187 74.531 28.5187 72.9777 29.7778 71.7185 31.3311 71.7185 32.8845 71.7185 34.1436 72.9777 34.1436 74.531 34.1436 76.0843 32.8845 77.3435 31.3311 77.3435ZM44.9249 77.3435C43.3715 77.3435 42.1124 76.0843 42.1124 74.531 42.1124 72.9777 43.3715 71.7185 44.9249 71.7185 46.4782 71.7185 47.7373 72.9777 47.7373 74.531 47.7373 76.0843 46.4782 77.3435 44.9249 77.3435ZM58.5186 77.3435C56.9652 77.3435 55.7061 76.0843 55.7061 74.531 55.7061 72.9777 56.9652 71.7185 58.5186 71.7185 60.0719 71.7185 61.331 72.9777 61.331 74.531 61.331 76.0843 60.0719 77.3435 58.5186 77.3435Z" transform="matrix(1 0 0 1 1976 1841)"/><path d="M51.403 26.2499C51.403 27.0266 50.7734 27.6562 49.9967 27.6562 49.2201 27.6562 48.5905 27.0266 48.5905 26.2499 48.5905 25.4733 49.2201 24.8437 49.9967 24.8437 50.7734 24.8437 51.403 25.4733 51.403 26.2499Z" transform="matrix(1 0 0 1 1976 1841)"/><path d="M53.0717 16.8749 46.8748 16.8749 46.8748 12.6093C48.6685 11.5738 49.283 9.28035 48.2474 7.48676 47.2119 5.69317 44.9185 5.07864 43.1249 6.11417 41.3312 7.1497 40.7167 9.44312 41.7523 11.2367 42.0814 11.8068 42.5548 12.2802 43.1249 12.6093L43.1249 16.8749 36.928 16.8749C34.6572 16.8801 32.8175 18.7198 32.8124 20.9906L32.8124 31.5093C32.8175 33.7801 34.6572 35.6197 36.928 35.6249L53.0717 35.6249C55.3425 35.6197 57.1822 33.7801 57.1873 31.5093L57.1873 20.9906C57.1822 18.7198 55.3425 16.8801 53.0717 16.8749ZM40.3124 29.0624C38.759 29.0624 37.4999 27.8033 37.4999 26.2499 37.4999 24.6966 38.759 23.4374 40.3124 23.4374 41.8657 23.4374 43.1249 24.6966 43.1249 26.2499 43.1249 27.8033 41.8657 29.0624 40.3124 29.0624ZM49.6873 29.0624C48.134 29.0624 46.8748 27.8033 46.8748 26.2499 46.8748 24.6966 48.134 23.4374 49.6873 23.4374 51.2407 23.4374 52.4998 24.6966 52.4998 26.2499 52.4998 27.8033 51.2407 29.0624 49.6873 29.0624Z" transform="matrix(1 0 0 1 1976 1841)"/><path d="M42.028 26.2499C42.028 27.0266 41.3984 27.6562 40.6217 27.6562 39.8451 27.6562 39.2155 27.0266 39.2155 26.2499 39.2155 25.4733 39.8451 24.8437 40.6217 24.8437 41.3984 24.8437 42.028 25.4733 42.028 26.2499Z" transform="matrix(1 0 0 1 1976 1841)"/><path d="M69.3748 55.1436 69.3748 47.3342C69.3748 45.0094 67.4902 43.1249 65.1654 43.1249L59.9998 43.1249 59.9998 38.4374 29.9999 38.4374 29.9999 44.0624 22.9593 44.0624C22.7056 44.0624 22.4999 43.8567 22.4999 43.603L22.4999 35.8311C25.7227 34.8794 27.5636 31.4953 26.6119 28.2727 26.3567 27.4087 25.9129 26.6122 25.3124 25.9405L22.4999 28.4343C22.8933 28.8621 23.1167 29.4188 23.128 29.9999 23.121 31.2943 22.066 32.3379 20.7716 32.3309 19.4772 32.3238 18.4336 31.2688 18.4407 29.9744 18.4437 29.4153 18.6464 28.8757 19.0124 28.453L16.1999 25.9874C13.9904 28.526 14.2571 32.375 16.7956 34.5846 17.3699 35.0845 18.0328 35.4724 18.7499 35.728L18.7499 43.603C18.7499 45.9278 20.6345 47.8123 22.9593 47.8123L29.9999 47.8123 29.9999 64.6873 59.9998 64.6873 59.9998 46.8748 65.1654 46.8748C65.4191 46.8748 65.6248 47.0805 65.6248 47.3342L65.6248 55.1436C62.4227 56.1794 60.6666 59.615 61.7025 62.8171 61.9618 63.6184 62.3843 64.3574 62.9435 64.9873L65.756 62.4935C65.3681 62.0683 65.154 61.5129 65.156 60.9373 65.1572 59.6429 66.2073 58.5944 67.5017 58.5955 68.7961 58.5966 69.8446 59.6468 69.8435 60.9412 69.843 61.509 69.6365 62.0572 69.2623 62.4842L72.0748 64.9498C74.293 62.4257 74.045 58.5813 71.5209 56.3631 70.8964 55.8142 70.1659 55.3991 69.3748 55.1436ZM56.2498 51.5623 53.6436 51.5623C53.5529 51.5785 53.4667 51.6137 53.3904 51.6655L50.5217 54.5998 48.3373 49.4248 44.2592 57.8623 41.3999 46.8748 39.1967 51.5623 34.6874 51.5623 34.6874 49.6873 38.0061 49.6873 41.9061 41.3905 44.7936 52.4342 48.4592 44.9342 51.1592 51.328 52.0967 50.3905C52.5084 49.9738 53.059 49.7235 53.6436 49.6873L56.2498 49.6873Z" transform="matrix(1 0 0 1 1976 1841)"/></g></g></g><g clip-path="url(#clip28)"><g clip-path="url(#clip29)"><g clip-path="url(#clip30)"><path d="M1964 1905C1963.95 1902.49 1962.77 1900.15 1960.8 1898.6 1956.4 1895 1950.8 1892.6 1945.2 1891 1940.92 1889.69 1936.47 1889.02 1932 1889 1927.53 1889.08 1923.09 1889.75 1918.8 1891 1913.21 1892.63 1907.93 1895.2 1903.2 1898.6 1901.23 1900.15 1900.05 1902.49 1900 1905L1900 1921 1964 1921Z"/><path d="M1949.11 1880.6C1948.19 1877 1951.71 1868 1951.74 1861.66 1951.74 1856.59 1950.3 1854.32 1947.58 1852.78 1946.01 1851.89 1942.39 1852.71 1942.39 1852.71 1942.39 1852.71 1940.52 1849.17 1934.26 1847.22 1929.12 1845.82 1923.63 1846.52 1919 1849.17 1915.13 1851.67 1913.26 1854.42 1913.17 1863.88 1913.09 1872.55 1914.28 1880.25 1913.73 1883.88 1913.48 1885.89 1912.71 1887.8 1911.51 1889.43 1911.51 1889.43 1917.51 1890.2 1920.86 1888.43 1922.55 1887.3 1924.14 1886.04 1925.64 1884.67 1920.51 1882.28 1916.77 1877.65 1915.5 1872.13 1915.37 1871.65 1914.5 1868.51 1915.89 1866.75 1916.65 1865.75 1918.39 1865.47 1921.29 1864.96 1924.76 1864.5 1928.15 1863.55 1931.35 1862.13 1934.95 1860.32 1938.28 1858.03 1941.27 1855.33 1941.66 1854.94 1942.3 1854.95 1942.68 1855.34 1942.83 1855.49 1942.93 1855.68 1942.96 1855.89 1943.2 1857.54 1943.77 1859.11 1944.64 1860.53 1945.05 1861.05 1945.55 1861.49 1946.12 1861.83 1946.78 1862.23 1947.36 1862.76 1947.8 1863.4 1948.52 1864.81 1948.93 1866.36 1949 1867.94 1948.93 1875.24 1944.6 1881.82 1937.92 1884.76 1939.18 1885.87 1940.83 1887.24 1942.65 1888.56 1945.65 1890.73 1952.9 1887.73 1952.9 1887.73 1952.9 1887.73 1950.56 1886.33 1949.11 1880.6Z"/><path d="M1947 1868C1946.95 1866.79 1946.65 1865.61 1946.14 1864.51 1945.85 1864.1 1945.46 1863.75 1945.02 1863.51 1944.26 1863.05 1943.58 1862.46 1943.02 1861.76 1942.22 1860.6 1941.64 1859.3 1941.31 1857.93 1938.52 1860.27 1935.46 1862.29 1932.21 1863.93 1928.83 1865.43 1925.26 1866.44 1921.59 1866.93 1919.9 1867.23 1917.79 1867.6 1917.43 1867.98 1916.83 1868.76 1917.14 1870.75 1917.43 1871.59 1919.14 1878.8 1925.26 1884 1932 1884 1940 1884 1947 1876.52 1947 1868Z"/></g></g></g><text font-family="Times New Roman,Times New Roman_MSFontService,sans-serif" font-weight="700" font-size="83" transform="matrix(1 0 0 1 2124.84 1894)">…</text><text font-family="Times New Roman,Times New Roman_MSFontService,sans-serif" font-weight="700" font-size="83" transform="matrix(1 0 0 1 2122.01 1726)">…</text><g clip-path="url(#clip31)"><g clip-path="url(#clip32)"><g clip-path="url(#clip33)"><path d="M106.667 50C106.667 64.7275 94.7275 76.6666 79.9999 76.6666 65.2723 76.6666 53.3333 64.7275 53.3333 50 53.3333 35.2724 65.2723 23.3333 79.9999 23.3333 94.7275 23.3333 106.667 35.2724 106.667 50Z" transform="matrix(1 0 0 1 1275 1958)"/><path d="M133.333 136.667 133.333 110C133.333 106 131.333 102 128 99.3332 120.667 93.3332 111.333 89.3332 102 86.6666 95.3332 84.6666 87.9999 83.3332 79.9999 83.3332 72.6666 83.3332 65.3333 84.6666 57.9999 86.6666 48.6666 89.3332 39.3333 93.9999 32 99.3332 28.6666 102 26.6666 106 26.6666 110L26.6666 136.667 133.333 136.667Z" transform="matrix(1 0 0 1 1275 1958)"/></g></g></g><path d="M1435.07 2032.84 1628.98 2035.57 1628.83 2045.89 1434.93 2043.16ZM1628.91 2040.73 1608.65 2014.66 1659.84 2041.17 1607.92 2066.22Z"/><g clip-path="url(#clip34)"><g clip-path="url(#clip35)"><g clip-path="url(#clip36)"><path d="M95.8147 22.8354C94.873 17.3031 89.9292 13.0656 84.1615 13.0656 83.573 13.0656 82.8667 13.1833 82.2782 13.1833 79.4532 9.65209 75.098 7.41563 70.1542 7.41563 62.974 7.41563 56.9709 12.2417 55.0875 18.8333 48.4959 20.1281 43.5521 25.8959 43.5521 32.8407 43.5521 40.7271 49.9084 47.0834 57.6771 47.0834L57.6771 47.0834C57.6771 47.0834 92.5188 47.0834 92.9897 47.0834 99.8168 47.0834 104.878 41.5511 104.878 34.724 104.878 29.074 100.994 24.3656 95.8147 22.8354ZM92.2834 40.0209 57.4417 40.0209C54.7344 39.7854 52.3803 38.2552 51.2032 35.9011 50.1438 33.4292 50.3792 30.6042 52.0271 28.3677 53.4396 26.4844 55.5584 25.425 57.7948 25.425 58.148 25.425 58.6188 25.425 58.9719 25.5427L61.0907 25.8959 61.0907 23.5417C61.0907 19.3042 63.9157 15.6552 68.0355 14.7136 68.7417 14.5958 69.448 14.4781 70.1542 14.4781 70.1542 14.4781 70.1542 14.4781 70.1542 14.4781L70.1542 14.4781C70.1542 14.4781 70.1542 14.4781 70.1542 14.4781 73.5678 14.4781 76.6282 16.3615 78.1584 19.4219L78.8646 20.8344 80.3949 20.2459C81.1011 20.0104 81.9251 19.8927 82.749 19.8927 84.2792 19.8927 85.6917 20.3636 86.9865 21.1875 88.8699 22.6 90.047 24.8365 90.047 27.1906L90.047 29.074 92.4011 29.074C95.4615 29.074 97.9334 31.5459 97.9334 34.6063 97.8157 37.549 95.3438 40.0209 92.2834 40.0209Z" transform="matrix(1.00885 0 0 1 1462 2055)"/><path d="M60.973 51.7917 12.0063 51.7917C9.88751 51.7917 8.23959 53.4396 8.23959 55.5584L8.23959 89.223C8.23959 91.3417 9.88751 92.9897 12.0063 92.9897 12.0063 92.9897 12.0063 92.9897 12.0063 92.9897L30.6042 92.9897 30.6042 97.698 22.3646 97.698 22.3646 104.761 50.6146 104.761 50.6146 97.698 42.375 97.698 42.375 92.9897 60.973 92.9897C63.0917 92.9897 64.7396 91.3417 64.7396 89.223L64.7396 89.223 64.7396 55.5584C64.7396 53.4396 63.0917 51.7917 60.973 51.7917ZM57.6771 85.9272 15.3021 85.9272 15.3021 58.8542 57.6771 58.8542 57.6771 85.9272Z" transform="matrix(1.00885 0 0 1 1462 2055)"/><path d="M82.1605 51.7917C83.3376 53.3219 83.9261 55.323 83.9261 57.2063 83.9261 60.7375 81.9251 63.9157 78.8646 65.5636L78.8646 60.7375 70.2719 69.448 78.8646 77.923 78.8646 73.0969C87.6928 70.7428 92.872 61.6792 90.4001 52.8511 90.2824 52.498 90.1647 52.1448 90.047 51.7917L82.1605 51.7917Z" transform="matrix(1.00885 0 0 1 1462 2055)"/><path d="M26.9552 47.0834C26.0136 45.9063 25.1896 43.5521 25.1896 41.6688 25.1896 38.1375 27.1906 34.9594 30.2511 33.3115L30.2511 38.1375 38.8438 29.4271 30.2511 20.9521 30.2511 25.7781C21.4229 28.1323 16.2438 37.1959 18.7156 46.024 18.8333 46.3771 18.9511 46.7302 19.0688 47.0834L26.9552 47.0834Z" transform="matrix(1.00885 0 0 1 1462 2055)"/></g></g></g><path d="M2425.5 1683.5C2425.5 1634.35 2465.35 1594.5 2514.5 1594.5L3234.5 1594.5C3283.65 1594.5 3323.5 1634.35 3323.5 1683.5L3323.5 2039.5C3323.5 2088.65 3283.65 2128.5 3234.5 2128.5L2514.5 2128.5C2465.35 2128.5 2425.5 2088.65 2425.5 2039.5Z" stroke="#000000" stroke-width="4.58333" stroke-miterlimit="8" fill="#DAE3F3" fill-rule="evenodd"/><path d="M2669.5 1748.33C2669.5 1733.51 2681.51 1721.5 2696.33 1721.5L3066.67 1721.5C3081.49 1721.5 3093.5 1733.51 3093.5 1748.33L3093.5 1855.67C3093.5 1870.49 3081.49 1882.5 3066.67 1882.5L2696.33 1882.5C2681.51 1882.5 2669.5 1870.49 2669.5 1855.67Z" stroke="#000000" stroke-width="4.58333" stroke-miterlimit="8" fill="#FFE699" fill-rule="evenodd"/><g clip-path="url(#clip37)"><g clip-path="url(#clip38)"><g clip-path="url(#clip39)"><path d="M74.5001 15.5209C41.9063 15.5209 15.5209 41.9063 15.5209 74.5001 15.5209 107.094 41.9063 133.479 74.5001 133.479 107.094 133.479 133.479 107.094 133.479 74.5001 133.479 41.9063 107.094 15.5209 74.5001 15.5209ZM21.7292 74.5001C21.7292 60.6865 27.0063 48.2699 35.698 38.8021 37.0948 39.5782 38.4917 40.8198 38.8021 41.9063L38.8021 51.6844C38.8021 52.3053 38.9573 53.0813 39.423 53.5469L49.6667 66.7397 50.4428 65.9636C50.9084 65.498 51.0636 64.722 50.7532 64.1011L48.8907 60.997C48.1146 59.7553 49.3563 58.2032 50.7532 58.6688 51.2188 58.824 51.5292 59.1345 51.6844 59.4449L56.8063 69.5334C57.4272 70.6199 58.3584 71.5511 59.4449 71.8615L66.274 74.1897C66.7397 74.3449 67.0501 74.6553 67.2053 74.9657L67.6709 75.7418C68.1366 76.8282 69.223 77.4491 70.4647 77.4491L72.3272 77.4491C72.7928 77.4491 73.2584 77.7595 73.5688 78.0699L75.5866 81.0189C76.0522 81.6397 76.673 82.1053 77.4491 82.2605L80.7084 83.0366C81.6397 83.1918 82.1053 84.2782 81.7949 85.0543 81.7949 85.0543 79.3116 87.5376 79.3116 91.1074 79.3116 101.351 88.6241 104.3 88.6241 106.628 88.6241 112.992 87.6928 121.839 87.2272 125.253 83.1918 126.185 79.0012 126.805 74.6553 126.805 45.4761 127.271 21.7292 103.524 21.7292 74.5001ZM94.3668 123.391C97.7814 120.442 103.524 115.475 105.542 113.302 108.18 110.353 108.646 105.542 108.646 105.542 108.646 105.542 119.511 102.593 119.511 94.6772 119.511 89.2449 108.646 86.9168 108.646 86.9168 106.783 80.8636 97.6262 77.6043 90.021 77.6043 88.3137 77.6043 82.2605 80.7084 82.2605 80.7084L79.1564 79.1564 79.1564 74.5001C79.1564 73.5688 78.5355 72.948 77.6043 72.948L74.5001 72.948 74.5001 68.2918C74.5001 67.3605 73.8793 66.7397 72.948 66.7397L71.3959 66.7397 69.6886 67.8261C68.1366 68.9126 65.9636 68.2918 65.1876 66.5845 65.1876 66.5845 63.6355 64.4115 63.6355 63.4803 63.6355 56.8063 71.3959 57.272 71.3959 57.272L74.8105 57.272C75.5866 57.272 76.2074 57.7376 76.3626 58.5136L77.2939 62.3938C77.4491 63.0147 78.0699 63.6355 78.8459 63.6355L79.4668 63.6355C80.2428 63.6355 80.8636 63.1699 81.0189 62.3938L82.1053 56.6511C82.2605 56.1855 82.4157 55.7199 82.7262 55.2542L87.072 49.8219C88.0032 48.7355 89.2449 48.1146 90.6418 48.1146L94.6772 48.1146C95.6085 48.1146 96.2293 47.4938 96.2293 46.5626L96.2293 45.0105 95.7637 44.5449C94.8324 43.6136 95.4533 41.9063 96.8501 41.9063L97.7814 41.9063C98.7126 41.9063 99.3335 42.5271 99.3335 43.4584 99.3335 44.3896 99.9543 45.0105 100.886 45.0105L102.438 45.0105 103.369 40.9751C103.679 39.5782 103.058 38.3365 101.972 37.5605L88.7793 29.6448C88.6241 29.4896 88.3137 29.4896 88.0032 29.4896L85.3647 29.4896C83.6574 29.4896 82.2605 30.8865 82.2605 32.5938L82.2605 34.1459C82.2605 35.0771 81.6397 35.698 80.7084 35.698L79.1564 35.698 77.6043 34.1459 72.948 34.1459C72.0168 34.1459 71.3959 33.525 71.3959 32.5938L71.3959 28.7136C71.3959 28.248 71.5511 27.7823 72.0168 27.4719L81.9501 23.2813 83.5022 25.9198C83.8126 26.2302 84.123 26.3855 84.5887 26.3855L88.4689 26.3855C89.4001 26.3855 90.021 25.7646 90.021 24.8334L90.021 24.0573C111.595 30.7313 127.271 50.7532 127.271 74.5001 127.271 96.5397 113.613 115.475 94.3668 123.391Z" transform="matrix(1.00671 0 0 1 2802 1733)"/><path d="M93.5908 67.9813 86.1407 65.498C85.5199 65.3428 85.0543 65.3428 84.4334 65.498L79.1564 66.7397C78.6907 67.0501 78.5355 67.6709 79.1564 68.2918L86.2959 68.2918C86.7616 68.2918 87.072 68.2918 87.3824 68.447L92.8147 70.6199C93.746 70.9303 94.6772 70.3095 94.6772 69.3782 94.6772 68.7574 94.2116 68.1366 93.5908 67.9813Z" transform="matrix(1.00671 0 0 1 2802 1733)"/></g></g></g><g clip-path="url(#clip40)"><g clip-path="url(#clip41)"><g clip-path="url(#clip42)"><path d="M2758.25 1840.75 2712.53 1840.75C2706.79 1840.75 2702.14 1845.4 2702.14 1851.14 2702.14 1856.88 2706.79 1861.53 2712.53 1861.53L2758.25 1861.53C2763.99 1861.53 2768.64 1856.88 2768.64 1851.14 2768.64 1845.4 2763.99 1840.75 2758.25 1840.75ZM2715.3 1855.3C2713 1855.3 2711.14 1853.44 2711.14 1851.14 2711.14 1848.85 2713 1846.98 2715.3 1846.98 2717.6 1846.98 2719.46 1848.85 2719.46 1851.14 2719.46 1853.44 2717.6 1855.3 2715.3 1855.3ZM2735.39 1855.3C2733.09 1855.3 2731.23 1853.44 2731.23 1851.14 2731.23 1848.85 2733.09 1846.98 2735.39 1846.98 2737.68 1846.98 2739.55 1848.85 2739.55 1851.14 2739.55 1853.44 2737.68 1855.3 2735.39 1855.3ZM2755.48 1855.3C2753.18 1855.3 2751.32 1853.44 2751.32 1851.14 2751.32 1848.85 2753.18 1846.98 2755.48 1846.98 2757.77 1846.98 2759.63 1848.85 2759.63 1851.14 2759.63 1853.44 2757.77 1855.3 2755.48 1855.3Z" fill="#FF0000"/><path d="M2744.96 1779.79C2744.96 1780.94 2744.03 1781.87 2742.88 1781.87 2741.74 1781.87 2740.81 1780.94 2740.81 1779.79 2740.81 1778.64 2741.74 1777.71 2742.88 1777.71 2744.03 1777.71 2744.96 1778.64 2744.96 1779.79Z" fill="#FF0000"/><path d="M2747.43 1765.94 2738.27 1765.94 2738.27 1759.63C2740.92 1758.1 2741.83 1754.71 2740.3 1752.06 2738.77 1749.41 2735.38 1748.51 2732.73 1750.04 2730.08 1751.57 2729.17 1754.95 2730.7 1757.61 2731.19 1758.45 2731.89 1759.15 2732.73 1759.63L2732.73 1765.94 2723.57 1765.94C2720.22 1765.95 2717.5 1768.66 2717.49 1772.02L2717.49 1787.56C2717.5 1790.92 2720.22 1793.64 2723.57 1793.65L2747.43 1793.65C2750.78 1793.64 2753.5 1790.92 2753.51 1787.56L2753.51 1772.02C2753.5 1768.66 2750.78 1765.95 2747.43 1765.94ZM2728.57 1783.95C2726.28 1783.95 2724.42 1782.09 2724.42 1779.79 2724.42 1777.5 2726.28 1775.64 2728.57 1775.64 2730.87 1775.64 2732.73 1777.5 2732.73 1779.79 2732.73 1782.09 2730.87 1783.95 2728.57 1783.95ZM2742.43 1783.95C2740.13 1783.95 2738.27 1782.09 2738.27 1779.79 2738.27 1777.5 2740.13 1775.64 2742.43 1775.64 2744.72 1775.64 2746.58 1777.5 2746.58 1779.79 2746.58 1782.09 2744.72 1783.95 2742.43 1783.95Z" fill="#FF0000"/><path d="M2731.11 1779.79C2731.11 1780.94 2730.18 1781.87 2729.03 1781.87 2727.88 1781.87 2726.95 1780.94 2726.95 1779.79 2726.95 1778.64 2727.88 1777.71 2729.03 1777.71 2730.18 1777.71 2731.11 1778.64 2731.11 1779.79Z" fill="#FF0000"/><path d="M2771.52 1822.49 2771.52 1810.95C2771.52 1807.51 2768.74 1804.73 2765.3 1804.73L2757.67 1804.73 2757.67 1797.8 2713.33 1797.8 2713.33 1806.11 2702.93 1806.11C2702.55 1806.11 2702.25 1805.81 2702.25 1805.44L2702.25 1793.95C2707.01 1792.54 2709.73 1787.54 2708.33 1782.78 2707.95 1781.5 2707.29 1780.33 2706.41 1779.33L2702.25 1783.02C2702.83 1783.65 2703.16 1784.47 2703.18 1785.33 2703.17 1787.25 2701.61 1788.79 2699.7 1788.78 2697.78 1788.77 2696.24 1787.21 2696.25 1785.3 2696.26 1784.47 2696.56 1783.67 2697.1 1783.05L2692.94 1779.4C2689.67 1783.16 2690.07 1788.84 2693.82 1792.11 2694.67 1792.85 2695.65 1793.42 2696.71 1793.8L2696.71 1805.44C2696.71 1808.87 2699.49 1811.66 2702.93 1811.66L2713.33 1811.66 2713.33 1836.59 2757.67 1836.59 2757.67 1810.27 2765.3 1810.27C2765.68 1810.27 2765.98 1810.57 2765.98 1810.95L2765.98 1822.49C2761.25 1824.02 2758.65 1829.1 2760.18 1833.83 2760.57 1835.01 2761.19 1836.11 2762.02 1837.04L2766.17 1833.35C2765.6 1832.72 2765.28 1831.9 2765.29 1831.05 2765.29 1829.14 2766.84 1827.59 2768.75 1827.59 2770.67 1827.59 2772.22 1829.15 2772.21 1831.06 2772.21 1831.9 2771.91 1832.71 2771.35 1833.34L2775.51 1836.98C2778.79 1833.25 2778.42 1827.57 2774.69 1824.29 2773.77 1823.48 2772.69 1822.87 2771.52 1822.49ZM2752.12 1817.2 2748.27 1817.2C2748.14 1817.22 2748.01 1817.27 2747.9 1817.35L2743.66 1821.69 2740.43 1814.04 2734.41 1826.51 2730.18 1810.27 2726.92 1817.2 2720.26 1817.2 2720.26 1814.43 2725.16 1814.43 2730.93 1802.17 2735.2 1818.49 2740.61 1807.4 2744.6 1816.85 2745.99 1815.47C2746.6 1814.85 2747.41 1814.48 2748.27 1814.43L2752.12 1814.43Z" fill="#FF0000"/></g></g></g><g clip-path="url(#clip43)"><g clip-path="url(#clip44)"><g clip-path="url(#clip45)"><path d="M89.2486 99.75 43.5298 99.75C37.7913 99.75 33.1392 104.402 33.1392 110.141 33.1392 115.879 37.7913 120.531 43.5298 120.531L89.2486 120.531C94.9871 120.531 99.6392 115.879 99.6392 110.141 99.6392 104.402 94.9871 99.75 89.2486 99.75ZM46.3006 114.297C44.0051 114.297 42.1444 112.436 42.1444 110.141 42.1444 107.845 44.0051 105.984 46.3006 105.984 48.5961 105.984 50.4569 107.845 50.4569 110.141 50.4569 112.436 48.5961 114.297 46.3006 114.297ZM66.3892 114.297C64.0937 114.297 62.2329 112.436 62.2329 110.141 62.2329 107.845 64.0937 105.984 66.3892 105.984 68.6847 105.984 70.5454 107.845 70.5454 110.141 70.5454 112.436 68.6847 114.297 66.3892 114.297ZM86.4777 114.297C84.1822 114.297 82.3215 112.436 82.3215 110.141 82.3215 107.845 84.1822 105.984 86.4777 105.984 88.7732 105.984 90.634 107.845 90.634 110.141 90.634 112.436 88.7732 114.297 86.4777 114.297Z" fill="#0070C0" transform="matrix(1.00752 0 0 1 2953 1741)"/><path d="M75.9624 38.7917C75.9624 39.9394 75.032 40.8698 73.8843 40.8698 72.7366 40.8698 71.8062 39.9394 71.8062 38.7917 71.8062 37.644 72.7366 36.7136 73.8843 36.7136 75.032 36.7136 75.9624 37.644 75.9624 38.7917Z" fill="#0070C0" transform="matrix(1.00752 0 0 1 2953 1741)"/><path d="M78.4285 24.9375 69.2709 24.9375 69.2709 18.6339C71.9214 17.1035 72.8296 13.7143 71.2992 11.0638 69.7689 8.41326 66.3798 7.50512 63.7292 9.03541 61.0786 10.5657 60.1705 13.9549 61.7008 16.6055 62.1872 17.4479 62.8867 18.1474 63.7292 18.6339L63.7292 24.9375 54.5716 24.9375C51.2158 24.9451 48.4972 27.6637 48.4896 31.0195L48.4896 46.5639C48.4972 49.9196 51.2158 52.6382 54.5716 52.6458L78.4285 52.6458C81.7842 52.6382 84.5028 49.9196 84.5104 46.5639L84.5104 31.0195C84.5028 27.6637 81.7842 24.9451 78.4285 24.9375ZM59.5729 42.9479C57.2774 42.9479 55.4167 41.0872 55.4167 38.7917 55.4167 36.4962 57.2774 34.6354 59.5729 34.6354 61.8684 34.6354 63.7292 36.4962 63.7292 38.7917 63.7292 41.0872 61.8684 42.9479 59.5729 42.9479ZM73.4271 42.9479C71.1316 42.9479 69.2709 41.0872 69.2709 38.7917 69.2709 36.4962 71.1316 34.6354 73.4271 34.6354 75.7226 34.6354 77.5834 36.4962 77.5834 38.7917 77.5834 41.0872 75.7226 42.9479 73.4271 42.9479Z" fill="#0070C0" transform="matrix(1.00752 0 0 1 2953 1741)"/><path d="M62.1082 38.7917C62.1082 39.9394 61.1778 40.8698 60.0301 40.8698 58.8824 40.8698 57.952 39.9394 57.952 38.7917 57.952 37.644 58.8824 36.7136 60.0301 36.7136 61.1778 36.7136 62.1082 37.644 62.1082 38.7917Z" fill="#0070C0" transform="matrix(1.00752 0 0 1 2953 1741)"/><path d="M102.521 81.4902 102.521 69.9497C102.521 66.5141 99.7359 63.7292 96.3003 63.7292L88.6667 63.7292 88.6667 56.8021 44.3333 56.8021 44.3333 65.1146 33.9289 65.1146C33.554 65.1146 33.25 64.8106 33.25 64.4357L33.25 52.9506C38.0125 51.5442 40.7331 46.5432 39.3266 41.7809 38.9495 40.5041 38.2936 39.327 37.4063 38.3345L33.25 42.0197C33.8313 42.6519 34.1615 43.4747 34.1782 44.3333 34.1678 46.2462 32.6087 47.7884 30.6959 47.778 28.783 47.7675 27.2409 46.2085 27.2513 44.2957 27.2557 43.4694 27.5554 42.6721 28.0963 42.0474L23.94 38.4038C20.6747 42.1552 21.0689 47.8433 24.8203 51.1086 25.669 51.8473 26.6485 52.4204 27.7083 52.7982L27.7083 64.4357C27.7083 67.8713 30.4933 70.6563 33.9289 70.6563L44.3333 70.6563 44.3333 95.5938 88.6667 95.5938 88.6667 69.2709 96.3003 69.2709C96.6752 69.2709 96.9792 69.5748 96.9792 69.9497L96.9792 81.4902C92.2472 83.021 89.6521 88.098 91.1829 92.83 91.5661 94.0143 92.1905 95.1062 93.0169 96.0371L97.1731 92.3519C96.5999 91.7235 96.2834 90.9027 96.2865 90.0521 96.2881 88.1393 97.8401 86.5898 99.7529 86.5915 101.666 86.5931 103.215 88.1451 103.214 90.0579 103.213 90.8969 102.908 91.7071 102.355 92.338L106.511 95.9817C109.789 92.2516 109.422 86.5704 105.692 83.2924 104.77 82.4812 103.69 81.8679 102.521 81.4902ZM83.125 76.1979 79.2736 76.1979C79.1396 76.2219 79.0121 76.2738 78.8995 76.3503L74.6601 80.6867 71.4321 73.0392 65.4055 85.5079 61.18 69.2709 57.9243 76.1979 51.2604 76.1979 51.2604 73.4271 56.1648 73.4271 61.9281 61.1662 66.1952 77.4864 71.6122 66.403 75.6022 75.8516 76.9876 74.4662C77.596 73.8505 78.4098 73.4806 79.2736 73.4271L83.125 73.4271Z" fill="#0070C0" transform="matrix(1.00752 0 0 1 2953 1741)"/></g></g></g><path d="M2607.5 1817.33C2607.5 1802.51 2619.51 1790.5 2634.33 1790.5L3004.67 1790.5C3019.49 1790.5 3031.5 1802.51 3031.5 1817.33L3031.5 1924.67C3031.5 1939.49 3019.49 1951.5 3004.67 1951.5L2634.33 1951.5C2619.51 1951.5 2607.5 1939.49 2607.5 1924.67Z" stroke="#000000" stroke-width="4.58333" stroke-miterlimit="8" fill="#FFE699" fill-rule="evenodd"/><g clip-path="url(#clip46)"><g clip-path="url(#clip47)"><g clip-path="url(#clip48)"><path d="M74.5001 15.5209C41.9063 15.5209 15.5209 41.9063 15.5209 74.5001 15.5209 107.094 41.9063 133.479 74.5001 133.479 107.094 133.479 133.479 107.094 133.479 74.5001 133.479 41.9063 107.094 15.5209 74.5001 15.5209ZM21.7292 74.5001C21.7292 60.6865 27.0063 48.2699 35.698 38.8021 37.0948 39.5782 38.4917 40.8198 38.8021 41.9063L38.8021 51.6844C38.8021 52.3053 38.9573 53.0813 39.423 53.5469L49.6667 66.7397 50.4428 65.9636C50.9084 65.498 51.0636 64.722 50.7532 64.1011L48.8907 60.997C48.1146 59.7553 49.3563 58.2032 50.7532 58.6688 51.2188 58.824 51.5292 59.1345 51.6844 59.4449L56.8063 69.5334C57.4272 70.6199 58.3584 71.5511 59.4449 71.8615L66.274 74.1897C66.7397 74.3449 67.0501 74.6553 67.2053 74.9657L67.6709 75.7418C68.1366 76.8282 69.223 77.4491 70.4647 77.4491L72.3272 77.4491C72.7928 77.4491 73.2584 77.7595 73.5688 78.0699L75.5866 81.0189C76.0522 81.6397 76.673 82.1053 77.4491 82.2605L80.7084 83.0366C81.6397 83.1918 82.1053 84.2782 81.7949 85.0543 81.7949 85.0543 79.3116 87.5376 79.3116 91.1074 79.3116 101.351 88.6241 104.3 88.6241 106.628 88.6241 112.992 87.6928 121.839 87.2272 125.253 83.1918 126.185 79.0012 126.805 74.6553 126.805 45.4761 127.271 21.7292 103.524 21.7292 74.5001ZM94.3668 123.391C97.7814 120.442 103.524 115.475 105.542 113.302 108.18 110.353 108.646 105.542 108.646 105.542 108.646 105.542 119.511 102.593 119.511 94.6772 119.511 89.2449 108.646 86.9168 108.646 86.9168 106.783 80.8636 97.6262 77.6043 90.021 77.6043 88.3137 77.6043 82.2605 80.7084 82.2605 80.7084L79.1564 79.1564 79.1564 74.5001C79.1564 73.5688 78.5355 72.948 77.6043 72.948L74.5001 72.948 74.5001 68.2918C74.5001 67.3605 73.8793 66.7397 72.948 66.7397L71.3959 66.7397 69.6886 67.8261C68.1366 68.9126 65.9636 68.2918 65.1876 66.5845 65.1876 66.5845 63.6355 64.4115 63.6355 63.4803 63.6355 56.8063 71.3959 57.272 71.3959 57.272L74.8105 57.272C75.5866 57.272 76.2074 57.7376 76.3626 58.5136L77.2939 62.3938C77.4491 63.0147 78.0699 63.6355 78.8459 63.6355L79.4668 63.6355C80.2428 63.6355 80.8636 63.1699 81.0189 62.3938L82.1053 56.6511C82.2605 56.1855 82.4157 55.7199 82.7262 55.2542L87.072 49.8219C88.0032 48.7355 89.2449 48.1146 90.6418 48.1146L94.6772 48.1146C95.6085 48.1146 96.2293 47.4938 96.2293 46.5626L96.2293 45.0105 95.7637 44.5449C94.8324 43.6136 95.4533 41.9063 96.8501 41.9063L97.7814 41.9063C98.7126 41.9063 99.3335 42.5271 99.3335 43.4584 99.3335 44.3896 99.9543 45.0105 100.886 45.0105L102.438 45.0105 103.369 40.9751C103.679 39.5782 103.058 38.3365 101.972 37.5605L88.7793 29.6448C88.6241 29.4896 88.3137 29.4896 88.0032 29.4896L85.3647 29.4896C83.6574 29.4896 82.2605 30.8865 82.2605 32.5938L82.2605 34.1459C82.2605 35.0771 81.6397 35.698 80.7084 35.698L79.1564 35.698 77.6043 34.1459 72.948 34.1459C72.0168 34.1459 71.3959 33.525 71.3959 32.5938L71.3959 28.7136C71.3959 28.248 71.5511 27.7823 72.0168 27.4719L81.9501 23.2813 83.5022 25.9198C83.8126 26.2302 84.123 26.3855 84.5887 26.3855L88.4689 26.3855C89.4001 26.3855 90.021 25.7646 90.021 24.8334L90.021 24.0573C111.595 30.7313 127.271 50.7532 127.271 74.5001 127.271 96.5397 113.613 115.475 94.3668 123.391Z" transform="matrix(1.00671 0 0 1 2740 1802)"/><path d="M93.5908 67.9813 86.1407 65.498C85.5199 65.3428 85.0543 65.3428 84.4334 65.498L79.1564 66.7397C78.6907 67.0501 78.5355 67.6709 79.1564 68.2918L86.2959 68.2918C86.7616 68.2918 87.072 68.2918 87.3824 68.447L92.8147 70.6199C93.746 70.9303 94.6772 70.3095 94.6772 69.3782 94.6772 68.7574 94.2116 68.1366 93.5908 67.9813Z" transform="matrix(1.00671 0 0 1 2740 1802)"/></g></g></g><g clip-path="url(#clip49)"><g clip-path="url(#clip50)"><g clip-path="url(#clip51)"><path d="M2696.25 1909.75 2650.53 1909.75C2644.79 1909.75 2640.14 1914.4 2640.14 1920.14 2640.14 1925.88 2644.79 1930.53 2650.53 1930.53L2696.25 1930.53C2701.99 1930.53 2706.64 1925.88 2706.64 1920.14 2706.64 1914.4 2701.99 1909.75 2696.25 1909.75ZM2653.3 1924.3C2651.01 1924.3 2649.14 1922.44 2649.14 1920.14 2649.14 1917.84 2651.01 1915.98 2653.3 1915.98 2655.6 1915.98 2657.46 1917.84 2657.46 1920.14 2657.46 1922.44 2655.6 1924.3 2653.3 1924.3ZM2673.39 1924.3C2671.09 1924.3 2669.23 1922.44 2669.23 1920.14 2669.23 1917.84 2671.09 1915.98 2673.39 1915.98 2675.68 1915.98 2677.55 1917.84 2677.55 1920.14 2677.55 1922.44 2675.68 1924.3 2673.39 1924.3ZM2693.48 1924.3C2691.18 1924.3 2689.32 1922.44 2689.32 1920.14 2689.32 1917.84 2691.18 1915.98 2693.48 1915.98 2695.77 1915.98 2697.63 1917.84 2697.63 1920.14 2697.63 1922.44 2695.77 1924.3 2693.48 1924.3Z" fill="#FF0000"/><path d="M2682.96 1848.79C2682.96 1849.94 2682.03 1850.87 2680.88 1850.87 2679.74 1850.87 2678.81 1849.94 2678.81 1848.79 2678.81 1847.64 2679.74 1846.71 2680.88 1846.71 2682.03 1846.71 2682.96 1847.64 2682.96 1848.79Z" fill="#FF0000"/><path d="M2685.43 1834.94 2676.27 1834.94 2676.27 1828.63C2678.92 1827.1 2679.83 1823.71 2678.3 1821.06 2676.77 1818.41 2673.38 1817.51 2670.73 1819.04 2668.08 1820.57 2667.17 1823.95 2668.7 1826.61 2669.19 1827.45 2669.89 1828.15 2670.73 1828.63L2670.73 1834.94 2661.57 1834.94C2658.22 1834.94 2655.5 1837.66 2655.49 1841.02L2655.49 1856.56C2655.5 1859.92 2658.22 1862.64 2661.57 1862.65L2685.43 1862.65C2688.78 1862.64 2691.5 1859.92 2691.51 1856.56L2691.51 1841.02C2691.5 1837.66 2688.78 1834.94 2685.43 1834.94ZM2666.57 1852.95C2664.28 1852.95 2662.42 1851.09 2662.42 1848.79 2662.42 1846.5 2664.28 1844.64 2666.57 1844.64 2668.87 1844.64 2670.73 1846.5 2670.73 1848.79 2670.73 1851.09 2668.87 1852.95 2666.57 1852.95ZM2680.43 1852.95C2678.13 1852.95 2676.27 1851.09 2676.27 1848.79 2676.27 1846.5 2678.13 1844.64 2680.43 1844.64 2682.72 1844.64 2684.58 1846.5 2684.58 1848.79 2684.58 1851.09 2682.72 1852.95 2680.43 1852.95Z" fill="#FF0000"/><path d="M2669.11 1848.79C2669.11 1849.94 2668.18 1850.87 2667.03 1850.87 2665.88 1850.87 2664.95 1849.94 2664.95 1848.79 2664.95 1847.64 2665.88 1846.71 2667.03 1846.71 2668.18 1846.71 2669.11 1847.64 2669.11 1848.79Z" fill="#FF0000"/><path d="M2709.52 1891.49 2709.52 1879.95C2709.52 1876.51 2706.74 1873.73 2703.3 1873.73L2695.67 1873.73 2695.67 1866.8 2651.33 1866.8 2651.33 1875.11 2640.93 1875.11C2640.55 1875.11 2640.25 1874.81 2640.25 1874.44L2640.25 1862.95C2645.01 1861.54 2647.73 1856.54 2646.33 1851.78 2645.95 1850.5 2645.29 1849.33 2644.41 1848.33L2640.25 1852.02C2640.83 1852.65 2641.16 1853.47 2641.18 1854.33 2641.17 1856.25 2639.61 1857.79 2637.7 1857.78 2635.78 1857.77 2634.24 1856.21 2634.25 1854.3 2634.26 1853.47 2634.56 1852.67 2635.1 1852.05L2630.94 1848.4C2627.67 1852.16 2628.07 1857.84 2631.82 1861.11 2632.67 1861.85 2633.65 1862.42 2634.71 1862.8L2634.71 1874.44C2634.71 1877.87 2637.49 1880.66 2640.93 1880.66L2651.33 1880.66 2651.33 1905.59 2695.67 1905.59 2695.67 1879.27 2703.3 1879.27C2703.68 1879.27 2703.98 1879.57 2703.98 1879.95L2703.98 1891.49C2699.25 1893.02 2696.65 1898.1 2698.18 1902.83 2698.57 1904.01 2699.19 1905.11 2700.02 1906.04L2704.17 1902.35C2703.6 1901.72 2703.28 1900.9 2703.29 1900.05 2703.29 1898.14 2704.84 1896.59 2706.75 1896.59 2708.67 1896.59 2710.22 1898.15 2710.21 1900.06 2710.21 1900.9 2709.91 1901.71 2709.35 1902.34L2713.51 1905.98C2716.79 1902.25 2716.42 1896.57 2712.69 1893.29 2711.77 1892.48 2710.69 1891.87 2709.52 1891.49ZM2690.12 1886.2 2686.27 1886.2C2686.14 1886.22 2686.01 1886.27 2685.9 1886.35L2681.66 1890.69 2678.43 1883.04 2672.41 1895.51 2668.18 1879.27 2664.92 1886.2 2658.26 1886.2 2658.26 1883.43 2663.16 1883.43 2668.93 1871.17 2673.2 1887.49 2678.61 1876.4 2682.6 1885.85 2683.99 1884.47C2684.6 1883.85 2685.41 1883.48 2686.27 1883.43L2690.12 1883.43Z" fill="#FF0000"/></g></g></g><g clip-path="url(#clip52)"><g clip-path="url(#clip53)"><g clip-path="url(#clip54)"><path d="M2981.25 1909.75 2935.53 1909.75C2929.79 1909.75 2925.14 1914.4 2925.14 1920.14 2925.14 1925.88 2929.79 1930.53 2935.53 1930.53L2981.25 1930.53C2986.99 1930.53 2991.64 1925.88 2991.64 1920.14 2991.64 1914.4 2986.99 1909.75 2981.25 1909.75ZM2938.3 1924.3C2936.01 1924.3 2934.14 1922.44 2934.14 1920.14 2934.14 1917.84 2936.01 1915.98 2938.3 1915.98 2940.6 1915.98 2942.46 1917.84 2942.46 1920.14 2942.46 1922.44 2940.6 1924.3 2938.3 1924.3ZM2958.39 1924.3C2956.09 1924.3 2954.23 1922.44 2954.23 1920.14 2954.23 1917.84 2956.09 1915.98 2958.39 1915.98 2960.68 1915.98 2962.55 1917.84 2962.55 1920.14 2962.55 1922.44 2960.68 1924.3 2958.39 1924.3ZM2978.48 1924.3C2976.18 1924.3 2974.32 1922.44 2974.32 1920.14 2974.32 1917.84 2976.18 1915.98 2978.48 1915.98 2980.77 1915.98 2982.63 1917.84 2982.63 1920.14 2982.63 1922.44 2980.77 1924.3 2978.48 1924.3Z" fill="#0070C0"/><path d="M2967.96 1848.79C2967.96 1849.94 2967.03 1850.87 2965.88 1850.87 2964.74 1850.87 2963.81 1849.94 2963.81 1848.79 2963.81 1847.64 2964.74 1846.71 2965.88 1846.71 2967.03 1846.71 2967.96 1847.64 2967.96 1848.79Z" fill="#0070C0"/><path d="M2970.43 1834.94 2961.27 1834.94 2961.27 1828.63C2963.92 1827.1 2964.83 1823.71 2963.3 1821.06 2961.77 1818.41 2958.38 1817.51 2955.73 1819.04 2953.08 1820.57 2952.17 1823.95 2953.7 1826.61 2954.19 1827.45 2954.89 1828.15 2955.73 1828.63L2955.73 1834.94 2946.57 1834.94C2943.22 1834.94 2940.5 1837.66 2940.49 1841.02L2940.49 1856.56C2940.5 1859.92 2943.22 1862.64 2946.57 1862.65L2970.43 1862.65C2973.78 1862.64 2976.5 1859.92 2976.51 1856.56L2976.51 1841.02C2976.5 1837.66 2973.78 1834.94 2970.43 1834.94ZM2951.57 1852.95C2949.28 1852.95 2947.42 1851.09 2947.42 1848.79 2947.42 1846.5 2949.28 1844.64 2951.57 1844.64 2953.87 1844.64 2955.73 1846.5 2955.73 1848.79 2955.73 1851.09 2953.87 1852.95 2951.57 1852.95ZM2965.43 1852.95C2963.13 1852.95 2961.27 1851.09 2961.27 1848.79 2961.27 1846.5 2963.13 1844.64 2965.43 1844.64 2967.72 1844.64 2969.58 1846.5 2969.58 1848.79 2969.58 1851.09 2967.72 1852.95 2965.43 1852.95Z" fill="#0070C0"/><path d="M2954.11 1848.79C2954.11 1849.94 2953.18 1850.87 2952.03 1850.87 2950.88 1850.87 2949.95 1849.94 2949.95 1848.79 2949.95 1847.64 2950.88 1846.71 2952.03 1846.71 2953.18 1846.71 2954.11 1847.64 2954.11 1848.79Z" fill="#0070C0"/><path d="M2994.52 1891.49 2994.52 1879.95C2994.52 1876.51 2991.74 1873.73 2988.3 1873.73L2980.67 1873.73 2980.67 1866.8 2936.33 1866.8 2936.33 1875.11 2925.93 1875.11C2925.55 1875.11 2925.25 1874.81 2925.25 1874.44L2925.25 1862.95C2930.01 1861.54 2932.73 1856.54 2931.33 1851.78 2930.95 1850.5 2930.29 1849.33 2929.41 1848.33L2925.25 1852.02C2925.83 1852.65 2926.16 1853.47 2926.18 1854.33 2926.17 1856.25 2924.61 1857.79 2922.7 1857.78 2920.78 1857.77 2919.24 1856.21 2919.25 1854.3 2919.26 1853.47 2919.56 1852.67 2920.1 1852.05L2915.94 1848.4C2912.67 1852.16 2913.07 1857.84 2916.82 1861.11 2917.67 1861.85 2918.65 1862.42 2919.71 1862.8L2919.71 1874.44C2919.71 1877.87 2922.49 1880.66 2925.93 1880.66L2936.33 1880.66 2936.33 1905.59 2980.67 1905.59 2980.67 1879.27 2988.3 1879.27C2988.68 1879.27 2988.98 1879.57 2988.98 1879.95L2988.98 1891.49C2984.25 1893.02 2981.65 1898.1 2983.18 1902.83 2983.57 1904.01 2984.19 1905.11 2985.02 1906.04L2989.17 1902.35C2988.6 1901.72 2988.28 1900.9 2988.29 1900.05 2988.29 1898.14 2989.84 1896.59 2991.75 1896.59 2993.67 1896.59 2995.22 1898.15 2995.21 1900.06 2995.21 1900.9 2994.91 1901.71 2994.35 1902.34L2998.51 1905.98C3001.79 1902.25 3001.42 1896.57 2997.69 1893.29 2996.77 1892.48 2995.69 1891.87 2994.52 1891.49ZM2975.12 1886.2 2971.27 1886.2C2971.14 1886.22 2971.01 1886.27 2970.9 1886.35L2966.66 1890.69 2963.43 1883.04 2957.41 1895.51 2953.18 1879.27 2949.92 1886.2 2943.26 1886.2 2943.26 1883.43 2948.16 1883.43 2953.93 1871.17 2958.2 1887.49 2963.61 1876.4 2967.6 1885.85 2968.99 1884.47C2969.6 1883.85 2970.41 1883.48 2971.27 1883.43L2975.12 1883.43Z" fill="#0070C0"/></g></g></g><path d="M2534.5 1882.5C2534.5 1867.59 2546.59 1855.5 2561.5 1855.5L2931.5 1855.5C2946.41 1855.5 2958.5 1867.59 2958.5 1882.5L2958.5 1990.5C2958.5 2005.41 2946.41 2017.5 2931.5 2017.5L2561.5 2017.5C2546.59 2017.5 2534.5 2005.41 2534.5 1990.5Z" stroke="#000000" stroke-width="4.58333" stroke-miterlimit="8" fill="#FFE699" fill-rule="evenodd"/><g clip-path="url(#clip55)"><g clip-path="url(#clip56)"><g clip-path="url(#clip57)"><path d="M74.9999 15.625C42.1875 15.625 15.625 42.1875 15.625 74.9999 15.625 107.812 42.1875 134.375 74.9999 134.375 107.812 134.375 134.375 107.812 134.375 74.9999 134.375 42.1875 107.812 15.625 74.9999 15.625ZM21.875 74.9999C21.875 61.0937 27.1875 48.5937 35.9375 39.0625 37.3437 39.8437 38.75 41.0937 39.0625 42.1875L39.0625 52.0312C39.0625 52.6562 39.2187 53.4375 39.6875 53.9062L50 67.1874 50.7812 66.4062C51.25 65.9374 51.4062 65.1562 51.0937 64.5312L49.2187 61.4062C48.4375 60.1562 49.6875 58.5937 51.0937 59.0625 51.5625 59.2187 51.875 59.5312 52.0312 59.8437L57.1875 69.9999C57.8125 71.0937 58.7499 72.0312 59.8437 72.3437L66.7187 74.6874C67.1874 74.8437 67.4999 75.1562 67.6562 75.4687L68.1249 76.2499C68.5937 77.3437 69.6874 77.9687 70.9374 77.9687L72.8124 77.9687C73.2812 77.9687 73.7499 78.2812 74.0624 78.5937L76.0937 81.5624C76.5624 82.1874 77.1874 82.6562 77.9687 82.8124L81.2499 83.5937C82.1874 83.7499 82.6562 84.8437 82.3437 85.6249 82.3437 85.6249 79.8437 88.1249 79.8437 91.7187 79.8437 102.031 89.2187 105 89.2187 107.344 89.2187 113.75 88.2812 122.656 87.8124 126.094 83.7499 127.031 79.5312 127.656 75.1562 127.656 45.7812 128.125 21.875 104.219 21.875 74.9999ZM94.9999 124.219C98.4374 121.25 104.219 116.25 106.25 114.062 108.906 111.094 109.375 106.25 109.375 106.25 109.375 106.25 120.312 103.281 120.312 95.3124 120.312 89.8437 109.375 87.4999 109.375 87.4999 107.5 81.4062 98.2812 78.1249 90.6249 78.1249 88.9062 78.1249 82.8124 81.2499 82.8124 81.2499L79.6874 79.6874 79.6874 74.9999C79.6874 74.0624 79.0624 73.4374 78.1249 73.4374L74.9999 73.4374 74.9999 68.7499C74.9999 67.8124 74.3749 67.1874 73.4374 67.1874L71.8749 67.1874 70.1562 68.2812C68.5937 69.3749 66.4062 68.7499 65.6249 67.0312 65.6249 67.0312 64.0624 64.8437 64.0624 63.9062 64.0624 57.1875 71.8749 57.6562 71.8749 57.6562L75.3124 57.6562C76.0937 57.6562 76.7187 58.125 76.8749 58.9062L77.8124 62.8124C77.9687 63.4374 78.5937 64.0624 79.3749 64.0624L79.9999 64.0624C80.7812 64.0624 81.4062 63.5937 81.5624 62.8124L82.6562 57.0312C82.8124 56.5625 82.9687 56.0937 83.2812 55.625L87.6562 50.1562C88.5937 49.0625 89.8437 48.4375 91.2499 48.4375L95.3124 48.4375C96.2499 48.4375 96.8749 47.8125 96.8749 46.875L96.8749 45.3125 96.4062 44.8437C95.4687 43.9062 96.0937 42.1875 97.4999 42.1875L98.4374 42.1875C99.3749 42.1875 99.9999 42.8125 99.9999 43.75 99.9999 44.6875 100.625 45.3125 101.562 45.3125L103.125 45.3125 104.062 41.25C104.375 39.8437 103.75 38.5937 102.656 37.8125L89.3749 29.8437C89.2187 29.6875 88.9062 29.6875 88.5937 29.6875L85.9374 29.6875C84.2187 29.6875 82.8124 31.0937 82.8124 32.8125L82.8124 34.375C82.8124 35.3125 82.1874 35.9375 81.2499 35.9375L79.6874 35.9375 78.1249 34.375 73.4374 34.375C72.4999 34.375 71.8749 33.75 71.8749 32.8125L71.8749 28.9062C71.8749 28.4375 72.0312 27.9687 72.4999 27.6562L82.4999 23.4375 84.0624 26.0937C84.3749 26.4062 84.6874 26.5625 85.1562 26.5625L89.0624 26.5625C89.9999 26.5625 90.6249 25.9375 90.6249 25L90.6249 24.2187C112.344 30.9375 128.125 51.0937 128.125 74.9999 128.125 97.1874 114.375 116.25 94.9999 124.219Z" transform="matrix(1 0 0 1 2667 1867)"/><path d="M94.2187 68.4374 86.7187 65.9374C86.0937 65.7812 85.6249 65.7812 84.9999 65.9374L79.6874 67.1874C79.2187 67.4999 79.0624 68.1249 79.6874 68.7499L86.8749 68.7499C87.3437 68.7499 87.6562 68.7499 87.9687 68.9062L93.4374 71.0937C94.3749 71.4062 95.3124 70.7812 95.3124 69.8437 95.3124 69.2187 94.8437 68.5937 94.2187 68.4374Z" transform="matrix(1 0 0 1 2667 1867)"/></g></g></g><g clip-path="url(#clip58)"><g clip-path="url(#clip59)"><g clip-path="url(#clip60)"><path d="M89.2486 99.75 43.5298 99.75C37.7913 99.75 33.1392 104.402 33.1392 110.141 33.1392 115.879 37.7913 120.531 43.5298 120.531L89.2486 120.531C94.9871 120.531 99.6392 115.879 99.6392 110.141 99.6392 104.402 94.9871 99.75 89.2486 99.75ZM46.3006 114.297C44.0051 114.297 42.1444 112.436 42.1444 110.141 42.1444 107.845 44.0051 105.984 46.3006 105.984 48.5961 105.984 50.4569 107.845 50.4569 110.141 50.4569 112.436 48.5961 114.297 46.3006 114.297ZM66.3892 114.297C64.0937 114.297 62.2329 112.436 62.2329 110.141 62.2329 107.845 64.0937 105.984 66.3892 105.984 68.6847 105.984 70.5454 107.845 70.5454 110.141 70.5454 112.436 68.6847 114.297 66.3892 114.297ZM86.4777 114.297C84.1822 114.297 82.3215 112.436 82.3215 110.141 82.3215 107.845 84.1822 105.984 86.4777 105.984 88.7732 105.984 90.634 107.845 90.634 110.141 90.634 112.436 88.7732 114.297 86.4777 114.297Z" fill="#FF0000" transform="matrix(1 0 0 1.00752 2534 1875)"/><path d="M75.9624 38.7917C75.9624 39.9394 75.032 40.8698 73.8843 40.8698 72.7366 40.8698 71.8062 39.9394 71.8062 38.7917 71.8062 37.644 72.7366 36.7136 73.8843 36.7136 75.032 36.7136 75.9624 37.644 75.9624 38.7917Z" fill="#FF0000" transform="matrix(1 0 0 1.00752 2534 1875)"/><path d="M78.4285 24.9375 69.2709 24.9375 69.2709 18.6339C71.9214 17.1035 72.8296 13.7143 71.2992 11.0638 69.7689 8.41326 66.3798 7.50512 63.7292 9.03541 61.0786 10.5657 60.1705 13.9549 61.7008 16.6055 62.1872 17.4479 62.8867 18.1474 63.7292 18.6339L63.7292 24.9375 54.5716 24.9375C51.2158 24.9451 48.4972 27.6637 48.4896 31.0195L48.4896 46.5639C48.4972 49.9196 51.2158 52.6382 54.5716 52.6458L78.4285 52.6458C81.7842 52.6382 84.5028 49.9196 84.5104 46.5639L84.5104 31.0195C84.5028 27.6637 81.7842 24.9451 78.4285 24.9375ZM59.5729 42.9479C57.2774 42.9479 55.4167 41.0872 55.4167 38.7917 55.4167 36.4962 57.2774 34.6354 59.5729 34.6354 61.8684 34.6354 63.7292 36.4962 63.7292 38.7917 63.7292 41.0872 61.8684 42.9479 59.5729 42.9479ZM73.4271 42.9479C71.1316 42.9479 69.2709 41.0872 69.2709 38.7917 69.2709 36.4962 71.1316 34.6354 73.4271 34.6354 75.7226 34.6354 77.5834 36.4962 77.5834 38.7917 77.5834 41.0872 75.7226 42.9479 73.4271 42.9479Z" fill="#FF0000" transform="matrix(1 0 0 1.00752 2534 1875)"/><path d="M62.1082 38.7917C62.1082 39.9394 61.1778 40.8698 60.0301 40.8698 58.8824 40.8698 57.952 39.9394 57.952 38.7917 57.952 37.644 58.8824 36.7136 60.0301 36.7136 61.1778 36.7136 62.1082 37.644 62.1082 38.7917Z" fill="#FF0000" transform="matrix(1 0 0 1.00752 2534 1875)"/><path d="M102.521 81.4902 102.521 69.9497C102.521 66.5141 99.7359 63.7292 96.3003 63.7292L88.6667 63.7292 88.6667 56.8021 44.3333 56.8021 44.3333 65.1146 33.9289 65.1146C33.554 65.1146 33.25 64.8106 33.25 64.4357L33.25 52.9506C38.0125 51.5442 40.7331 46.5432 39.3266 41.7809 38.9495 40.5041 38.2936 39.327 37.4063 38.3345L33.25 42.0197C33.8313 42.6519 34.1615 43.4747 34.1782 44.3333 34.1678 46.2462 32.6087 47.7884 30.6959 47.778 28.783 47.7675 27.2409 46.2085 27.2513 44.2957 27.2557 43.4694 27.5554 42.6721 28.0963 42.0474L23.94 38.4038C20.6747 42.1552 21.0689 47.8433 24.8203 51.1086 25.669 51.8473 26.6485 52.4204 27.7083 52.7982L27.7083 64.4357C27.7083 67.8713 30.4933 70.6563 33.9289 70.6563L44.3333 70.6563 44.3333 95.5938 88.6667 95.5938 88.6667 69.2709 96.3003 69.2709C96.6752 69.2709 96.9792 69.5748 96.9792 69.9497L96.9792 81.4902C92.2472 83.021 89.6521 88.098 91.1829 92.83 91.5661 94.0143 92.1905 95.1062 93.0169 96.0371L97.1731 92.3519C96.5999 91.7235 96.2834 90.9027 96.2865 90.0521 96.2881 88.1393 97.8401 86.5898 99.7529 86.5915 101.666 86.5931 103.215 88.1451 103.214 90.0579 103.213 90.8969 102.908 91.7071 102.355 92.338L106.511 95.9817C109.789 92.2516 109.422 86.5704 105.692 83.2924 104.77 82.4812 103.69 81.8679 102.521 81.4902ZM83.125 76.1979 79.2736 76.1979C79.1396 76.2219 79.0121 76.2738 78.8995 76.3503L74.6601 80.6867 71.4321 73.0392 65.4055 85.5079 61.18 69.2709 57.9243 76.1979 51.2604 76.1979 51.2604 73.4271 56.1648 73.4271 61.9281 61.1662 66.1952 77.4864 71.6122 66.403 75.6022 75.8516 76.9876 74.4662C77.596 73.8505 78.4098 73.4806 79.2736 73.4271L83.125 73.4271Z" fill="#FF0000" transform="matrix(1 0 0 1.00752 2534 1875)"/></g></g></g><g clip-path="url(#clip61)"><g clip-path="url(#clip62)"><g clip-path="url(#clip63)"><path d="M89.9194 100.5 43.857 100.5C38.0753 100.5 33.3883 105.187 33.3883 110.969 33.3883 116.75 38.0753 121.437 43.857 121.437L89.9194 121.437C95.7011 121.437 100.388 116.75 100.388 110.969 100.388 105.187 95.7011 100.5 89.9194 100.5ZM46.6486 115.156C44.3359 115.156 42.4612 113.281 42.4612 110.969 42.4612 108.656 44.3359 106.781 46.6486 106.781 48.9614 106.781 50.8361 108.656 50.8361 110.969 50.8361 113.281 48.9614 115.156 46.6486 115.156ZM66.8882 115.156C64.5754 115.156 62.7007 113.281 62.7007 110.969 62.7007 108.656 64.5754 106.781 66.8882 106.781 69.2009 106.781 71.0757 108.656 71.0757 110.969 71.0757 113.281 69.2009 115.156 66.8882 115.156ZM87.1277 115.156C84.815 115.156 82.9402 113.281 82.9402 110.969 82.9402 108.656 84.815 106.781 87.1277 106.781 89.4405 106.781 91.3152 108.656 91.3152 110.969 91.3152 113.281 89.4405 115.156 87.1277 115.156Z" fill="#0070C0" transform="matrix(1 0 0 1 2818 1875)"/><path d="M76.5334 39.0832C76.5334 40.2396 75.596 41.177 74.4396 41.177 73.2833 41.177 72.3459 40.2396 72.3459 39.0832 72.3459 37.9269 73.2833 36.9895 74.4396 36.9895 75.596 36.9895 76.5334 37.9269 76.5334 39.0832Z" fill="#0070C0" transform="matrix(1 0 0 1 2818 1875)"/><path d="M79.018 25.1249 69.7915 25.1249 69.7915 18.7739C72.462 17.2321 73.377 13.8174 71.8352 11.147 70.2933 8.4765 66.8787 7.56153 64.2082 9.10333 61.5377 10.6451 60.6227 14.0598 62.1646 16.7303 62.6546 17.5791 63.3594 18.2838 64.2082 18.7739L64.2082 25.1249 54.9818 25.1249C51.6008 25.1326 48.8617 27.8717 48.8541 31.2526L48.8541 46.9139C48.8617 50.2948 51.6008 53.0339 54.9818 53.0415L79.018 53.0415C82.3989 53.0339 85.138 50.2948 85.1456 46.9139L85.1456 31.2526C85.138 27.8717 82.3989 25.1326 79.018 25.1249ZM60.0207 43.2707C57.708 43.2707 55.8332 41.396 55.8332 39.0832 55.8332 36.7705 57.708 34.8958 60.0207 34.8958 62.3335 34.8958 64.2082 36.7705 64.2082 39.0832 64.2082 41.396 62.3335 43.2707 60.0207 43.2707ZM73.979 43.2707C71.6663 43.2707 69.7915 41.396 69.7915 39.0832 69.7915 36.7705 71.6663 34.8958 73.979 34.8958 76.2918 34.8958 78.1665 36.7705 78.1665 39.0832 78.1665 41.396 76.2918 43.2707 73.979 43.2707Z" fill="#0070C0" transform="matrix(1 0 0 1 2818 1875)"/><path d="M62.5751 39.0832C62.5751 40.2396 61.6377 41.177 60.4813 41.177 59.325 41.177 58.3876 40.2396 58.3876 39.0832 58.3876 37.9269 59.325 36.9895 60.4813 36.9895 61.6377 36.9895 62.5751 37.9269 62.5751 39.0832Z" fill="#0070C0" transform="matrix(1 0 0 1 2818 1875)"/><path d="M103.291 82.1027 103.291 70.4755C103.291 67.0141 100.486 64.2082 97.0242 64.2082L89.3331 64.2082 89.3331 57.229 44.6666 57.229 44.6666 65.604 34.1839 65.604C33.8062 65.604 33.4999 65.2978 33.4999 64.9201L33.4999 53.3486C38.2982 51.9316 41.0392 46.8931 39.6222 42.0949 39.2422 40.8085 38.5814 39.6226 37.6874 38.6226L33.4999 42.3355C34.0856 42.9725 34.4182 43.8014 34.4351 44.6666 34.4247 46.5938 32.8538 48.1476 30.9266 48.1372 28.9993 48.1266 27.4457 46.5558 27.4561 44.6286 27.4606 43.7961 27.7625 42.9928 28.3074 42.3634L24.1199 38.6924C20.8301 42.472 21.2272 48.2029 25.0069 51.4927 25.8619 52.237 26.8488 52.8144 27.9166 53.1951L27.9166 64.9201C27.9166 68.3814 30.7225 71.1873 34.1839 71.1873L44.6666 71.1873 44.6666 96.3123 89.3331 96.3123 89.3331 69.7915 97.0242 69.7915C97.4019 69.7915 97.7081 70.0978 97.7081 70.4755L97.7081 82.1027C92.9405 83.645 90.326 88.7601 91.8682 93.5277 92.2543 94.7209 92.8834 95.8211 93.716 96.759L97.9035 93.0461C97.3259 92.4129 97.0071 91.586 97.0102 90.729 97.0119 88.8017 98.5755 87.2406 100.503 87.2423 102.43 87.244 103.991 88.8076 103.989 90.7348 103.989 91.5801 103.681 92.3964 103.124 93.0321L107.311 96.7031C110.614 92.945 110.245 87.2211 106.487 83.9184 105.557 83.1012 104.469 82.4832 103.291 82.1027ZM83.7498 76.7707 79.8694 76.7707C79.7344 76.7948 79.606 76.8472 79.4925 76.9242L75.2213 81.2932 71.969 73.5882 65.8971 86.1506 61.6399 69.7915 58.3597 76.7707 51.6457 76.7707 51.6457 73.979 56.587 73.979 62.3936 61.6259 66.6928 78.0688 72.1505 66.9021 76.1705 76.4217 77.5663 75.0259C78.1792 74.4056 78.9991 74.0329 79.8694 73.979L83.7498 73.979Z" fill="#0070C0" transform="matrix(1 0 0 1 2818 1875)"/></g></g></g><text font-family="Times New Roman,Times New Roman_MSFontService,sans-serif" font-weight="700" font-size="83" transform="matrix(1 0 0 1 2930.26 2089)">Back</text><text font-family="Times New Roman,Times New Roman_MSFontService,sans-serif" font-weight="700" font-size="83" transform="matrix(1 0 0 1 3109.01 2089)">-</text><text font-family="Times New Roman,Times New Roman_MSFontService,sans-serif" font-weight="700" font-size="83" transform="matrix(1 0 0 1 3136.51 2089)">End</text><path d="M2410 1843 2464 1897 2410 1951 2410 1924 2283 1924 2283 1870 2410 1870Z" stroke="#000000" stroke-width="8.02083" stroke-miterlimit="8" fill="#FFFFFF" fill-rule="evenodd"/><path d="M2960.5 1675 2918.29 1635.5 2938.04 1635.5C2930.13 1578.79 2905.91 1534.83 2875.12 1521.29 2920.37 1501.37 2965.91 1552.16 2977.54 1635.5L2997.29 1635.5Z" fill="#FFFFFF" fill-rule="evenodd"/><path d="M2894.87 1517C2847.72 1517 2809.5 1587.74 2809.5 1675L2770 1675C2770 1587.74 2808.22 1517 2855.37 1517Z" fill="#CDCDCD" fill-rule="evenodd"/><path d="M2894.87 1517C2847.72 1517 2809.5 1587.74 2809.5 1675L2770 1675C2770 1587.74 2808.22 1517 2855.37 1517L2894.87 1517C2933.81 1517 2967.81 1565.74 2977.54 1635.5L2997.29 1635.5 2960.5 1675 2918.29 1635.5 2938.04 1635.5C2930.13 1578.79 2905.91 1534.83 2875.12 1521.29" stroke="#000000" stroke-width="8.02083" stroke-miterlimit="8" fill="none" fill-rule="evenodd"/><path d="M3394.5 1668.83C3394.5 1617.84 3435.84 1576.5 3486.83 1576.5L4200.17 1576.5C4251.16 1576.5 4292.5 1617.84 4292.5 1668.83L4292.5 2038.17C4292.5 2089.16 4251.16 2130.5 4200.17 2130.5L3486.83 2130.5C3435.84 2130.5 3394.5 2089.16 3394.5 2038.17Z" stroke="#000000" stroke-width="4.58333" stroke-miterlimit="8" fill="#DAE3F3" fill-rule="evenodd"/><text font-family="Times New Roman,Times New Roman_MSFontService,sans-serif" font-weight="700" font-size="83" transform="matrix(1 0 0 1 4082.42 2093)">Web</text><path d="M3478.5 1709.5C3478.5 1669.18 3511.18 1636.5 3551.5 1636.5L4005.5 1636.5C4045.82 1636.5 4078.5 1669.18 4078.5 1709.5L4078.5 2001.5C4078.5 2041.82 4045.82 2074.5 4005.5 2074.5L3551.5 2074.5C3511.18 2074.5 3478.5 2041.82 3478.5 2001.5Z" stroke="#000000" stroke-width="4.58333" stroke-miterlimit="8" fill="#C5E0B4" fill-rule="evenodd"/><rect x="3520.5" y="1692.5" width="506" height="87" stroke="#000000" stroke-width="4.58333" stroke-miterlimit="8" fill="#FFFFFF"/><text fill="#FFFFFF" font-family="DengXian,DengXian_MSFontService,sans-serif" font-weight="400" font-size="83" transform="matrix(1 0 0 1 3732.07 1763)">①</text><text font-family="Arial,Arial_MSFontService,sans-serif" font-weight="700" font-size="73" transform="matrix(1 0 0 1 3539.39 1762)">1.</text><g clip-path="url(#clip64)"><g clip-path="url(#clip65)"><g clip-path="url(#clip66)"><path d="M63.3332 29.6875C63.3332 38.432 56.2444 45.5208 47.4999 45.5208 38.7554 45.5208 31.6666 38.432 31.6666 29.6875 31.6666 20.943 38.7554 13.8541 47.4999 13.8541 56.2444 13.8541 63.3332 20.943 63.3332 29.6875Z" transform="matrix(1 0 0 1 3694 1688)"/><path d="M79.1666 81.1457 79.1666 65.3124C79.1666 62.9374 77.9791 60.5624 75.9999 58.9791 71.6457 55.4166 66.1041 53.0416 60.5624 51.4583 56.6041 50.2708 52.2499 49.4791 47.4999 49.4791 43.1458 49.4791 38.7916 50.2708 34.4375 51.4583 28.8958 53.0416 23.3541 55.8124 19 58.9791 17.0208 60.5624 15.8333 62.9374 15.8333 65.3124L15.8333 81.1457 79.1666 81.1457Z" transform="matrix(1 0 0 1 3694 1688)"/></g></g></g><g clip-path="url(#clip67)"><g clip-path="url(#clip68)"><g clip-path="url(#clip69)"><path d="M19.7916 13.8541 13.8541 13.8541 13.8541 81.1457 81.1457 81.1457 81.1457 75.2082 19.7916 75.2082Z" transform="matrix(1 0 0 1 3796 1689)"/><path d="M25.7291 34.6354 36.6145 34.6354 36.6145 69.2707 25.7291 69.2707Z" transform="matrix(1 0 0 1 3796 1689)"/><path d="M40.5729 13.8541 51.4583 13.8541 51.4583 69.2707 40.5729 69.2707Z" transform="matrix(1 0 0 1 3796 1689)"/><path d="M55.4166 34.6354 66.302 34.6354 66.302 69.2707 55.4166 69.2707Z" transform="matrix(1 0 0 1 3796 1689)"/><path d="M70.2603 51.4583 81.1457 51.4583 81.1457 69.2707 70.2603 69.2707Z" transform="matrix(1 0 0 1 3796 1689)"/></g></g></g><g clip-path="url(#clip70)"><g clip-path="url(#clip71)"><g clip-path="url(#clip72)"><path d="M27.5625 32.6667C27.5625 33.7942 26.6484 34.7083 25.5208 34.7083 24.3932 34.7083 23.4792 33.7942 23.4792 32.6667 23.4792 31.5391 24.3932 30.625 25.5208 30.625 26.6484 30.625 27.5625 31.5391 27.5625 32.6667Z" transform="matrix(1 0 0 1 3898 1689)"/><path d="M27.5625 40.8333C27.5625 41.9609 26.6484 42.875 25.5208 42.875 24.3932 42.875 23.4792 41.9609 23.4792 40.8333 23.4792 39.7057 24.3932 38.7917 25.5208 38.7917 26.6484 38.7917 27.5625 39.7057 27.5625 40.8333Z" transform="matrix(1 0 0 1 3898 1689)"/><path d="M23.4792 36.75C23.4792 37.8776 22.5651 38.7917 21.4375 38.7917 20.3099 38.7917 19.3958 37.8776 19.3958 36.75 19.3958 35.6224 20.3099 34.7083 21.4375 34.7083 22.5651 34.7083 23.4792 35.6224 23.4792 36.75Z" transform="matrix(1 0 0 1 3898 1689)"/><path d="M31.6458 36.75C31.6458 37.8776 30.7317 38.7917 29.6042 38.7917 28.4766 38.7917 27.5625 37.8776 27.5625 36.75 27.5625 35.6224 28.4766 34.7083 29.6042 34.7083 30.7317 34.7083 31.6458 35.6224 31.6458 36.75Z" transform="matrix(1 0 0 1 3898 1689)"/><path d="M56.1458 28.5833C56.1458 29.7109 55.2317 30.625 54.1041 30.625 52.9766 30.625 52.0625 29.7109 52.0625 28.5833 52.0625 27.4557 52.9766 26.5417 54.1041 26.5417 55.2317 26.5417 56.1458 27.4557 56.1458 28.5833Z" transform="matrix(1 0 0 1 3898 1689)"/><path d="M56.1458 36.75C56.1458 37.8776 55.2317 38.7917 54.1041 38.7917 52.9766 38.7917 52.0625 37.8776 52.0625 36.75 52.0625 35.6224 52.9766 34.7083 54.1041 34.7083 55.2317 34.7083 56.1458 35.6224 56.1458 36.75Z" transform="matrix(1 0 0 1 3898 1689)"/><path d="M52.0625 32.6667C52.0625 33.7942 51.1484 34.7083 50.0208 34.7083 48.8932 34.7083 47.9792 33.7942 47.9792 32.6667 47.9792 31.5391 48.8932 30.625 50.0208 30.625 51.1484 30.625 52.0625 31.5391 52.0625 32.6667Z" transform="matrix(1 0 0 1 3898 1689)"/><path d="M60.2291 32.6667C60.2291 33.7942 59.3151 34.7083 58.1875 34.7083 57.0599 34.7083 56.1458 33.7942 56.1458 32.6667 56.1458 31.5391 57.0599 30.625 58.1875 30.625 59.3151 30.625 60.2291 31.5391 60.2291 32.6667Z" transform="matrix(1 0 0 1 3898 1689)"/><path d="M83.7083 45.9375 77.5833 52.0625 69.4166 52.0625 69.4166 74.5208 77.5833 74.5208 83.7083 80.6458 89.8333 80.6458 89.8333 45.9375Z" transform="matrix(1 0 0 1 3898 1689)"/><path d="M54.1041 41.8542C49 41.8542 44.9167 37.7708 44.9167 32.6667 44.9167 27.5625 49 23.4792 54.1041 23.4792 59.2083 23.4792 63.2916 27.5625 63.2916 32.6667 63.2916 37.7708 59.2083 41.8542 54.1041 41.8542ZM57.1666 74.5208C56.0437 74.5208 55.125 73.6021 55.125 72.4791 55.125 71.3562 56.0437 70.4375 57.1666 70.4375 58.2896 70.4375 59.2083 71.3562 59.2083 72.4791 59.2083 73.6021 58.2896 74.5208 57.1666 74.5208ZM37.7708 45.9375C39.0979 44.1 40.1187 42.0583 40.5271 39.7104 41.8542 42.2625 43.9979 44.4062 46.4479 45.9375L37.7708 45.9375ZM25.5208 45.9375C20.4167 45.9375 16.3333 41.8542 16.3333 36.75 16.3333 31.6458 20.4167 27.5625 25.5208 27.5625 30.625 27.5625 34.7083 31.6458 34.7083 36.75 34.7083 41.8542 30.625 45.9375 25.5208 45.9375ZM61.6583 45.9375C66.2521 43.2833 69.4166 38.3833 69.4166 32.6667 69.4166 24.1937 62.5771 17.3542 54.1041 17.3542 46.6521 17.3542 40.5271 22.6625 39.0979 29.7062 36.5458 24.8062 31.4417 21.4375 25.5208 21.4375 17.0479 21.4375 10.2083 28.2771 10.2083 36.75 10.2083 41.7521 12.6583 46.1417 16.3333 49L16.3333 52.0625 14.2917 52.0625 12.25 50.0208 8.16666 50.0208 8.16666 60.2291 12.25 60.2291 14.2917 58.1875 16.3333 58.1875 16.3333 76.5625C16.3333 78.8083 18.1708 80.6458 20.4167 80.6458L61.25 80.6458C63.4958 80.6458 65.3333 78.8083 65.3333 76.5625L65.3333 50.0208C65.3333 47.8771 63.7 46.1417 61.6583 45.9375Z" transform="matrix(1 0 0 1 3898 1689)"/></g></g></g><rect x="3521.5" y="1815.5" width="506" height="86.0002" stroke="#000000" stroke-width="4.58333" stroke-miterlimit="8" fill="#FFFFFF"/><text fill="#FFFFFF" font-family="DengXian,DengXian_MSFontService,sans-serif" font-weight="400" font-size="83" transform="matrix(1 0 0 1 3732.41 1885)">①</text><text font-family="Arial,Arial_MSFontService,sans-serif" font-weight="700" font-size="73" transform="matrix(1 0 0 1 3539.74 1884)">2</text><text font-family="Arial,Arial_MSFontService,sans-serif" font-weight="700" font-size="73" transform="matrix(1 0 0 1 3580.42 1884)">.</text><g clip-path="url(#clip73)"><g clip-path="url(#clip74)"><g clip-path="url(#clip75)"><path d="M63.3332 29.6875C63.3332 38.432 56.2444 45.5208 47.4999 45.5208 38.7554 45.5208 31.6666 38.432 31.6666 29.6875 31.6666 20.943 38.7554 13.8541 47.4999 13.8541 56.2444 13.8541 63.3332 20.943 63.3332 29.6875Z" transform="matrix(1 0 0 1 3695 1810)"/><path d="M79.1666 81.1457 79.1666 65.3124C79.1666 62.9374 77.9791 60.5624 75.9999 58.9791 71.6457 55.4166 66.1041 53.0416 60.5624 51.4583 56.6041 50.2708 52.2499 49.4791 47.4999 49.4791 43.1458 49.4791 38.7916 50.2708 34.4375 51.4583 28.8958 53.0416 23.3541 55.8124 19 58.9791 17.0208 60.5624 15.8333 62.9374 15.8333 65.3124L15.8333 81.1457 79.1666 81.1457Z" transform="matrix(1 0 0 1 3695 1810)"/></g></g></g><g clip-path="url(#clip76)"><g clip-path="url(#clip77)"><g clip-path="url(#clip78)"><path d="M19.7917 13.8542 13.8542 13.8542 13.8542 81.146 81.146 81.146 81.146 75.2085 19.7917 75.2085Z" transform="matrix(1.01052 0 0 1 3796 1811)"/><path d="M25.7292 34.6355 36.6147 34.6355 36.6147 69.271 25.7292 69.271Z" transform="matrix(1.01052 0 0 1 3796 1811)"/><path d="M40.573 13.8542 51.4585 13.8542 51.4585 69.271 40.573 69.271Z" transform="matrix(1.01052 0 0 1 3796 1811)"/><path d="M55.4168 34.6355 66.3022 34.6355 66.3022 69.271 55.4168 69.271Z" transform="matrix(1.01052 0 0 1 3796 1811)"/><path d="M70.2606 51.4585 81.146 51.4585 81.146 69.271 70.2606 69.271Z" transform="matrix(1.01052 0 0 1 3796 1811)"/></g></g></g><g clip-path="url(#clip79)"><g clip-path="url(#clip80)"><g clip-path="url(#clip81)"><path d="M3925.56 1843.67C3925.56 1844.79 3924.65 1845.71 3923.52 1845.71 3922.39 1845.71 3921.48 1844.79 3921.48 1843.67 3921.48 1842.54 3922.39 1841.62 3923.52 1841.62 3924.65 1841.62 3925.56 1842.54 3925.56 1843.67Z"/><path d="M3925.56 1851.83C3925.56 1852.96 3924.65 1853.87 3923.52 1853.87 3922.39 1853.87 3921.48 1852.96 3921.48 1851.83 3921.48 1850.71 3922.39 1849.79 3923.52 1849.79 3924.65 1849.79 3925.56 1850.71 3925.56 1851.83Z"/><path d="M3921.48 1847.75C3921.48 1848.88 3920.57 1849.79 3919.44 1849.79 3918.31 1849.79 3917.4 1848.88 3917.4 1847.75 3917.4 1846.62 3918.31 1845.71 3919.44 1845.71 3920.57 1845.71 3921.48 1846.62 3921.48 1847.75Z"/><path d="M3929.65 1847.75C3929.65 1848.88 3928.73 1849.79 3927.6 1849.79 3926.48 1849.79 3925.56 1848.88 3925.56 1847.75 3925.56 1846.62 3926.48 1845.71 3927.6 1845.71 3928.73 1845.71 3929.65 1846.62 3929.65 1847.75Z"/><path d="M3954.15 1839.58C3954.15 1840.71 3953.23 1841.62 3952.1 1841.62 3950.98 1841.62 3950.06 1840.71 3950.06 1839.58 3950.06 1838.46 3950.98 1837.54 3952.1 1837.54 3953.23 1837.54 3954.15 1838.46 3954.15 1839.58Z"/><path d="M3954.15 1847.75C3954.15 1848.88 3953.23 1849.79 3952.1 1849.79 3950.98 1849.79 3950.06 1848.88 3950.06 1847.75 3950.06 1846.62 3950.98 1845.71 3952.1 1845.71 3953.23 1845.71 3954.15 1846.62 3954.15 1847.75Z"/><path d="M3950.06 1843.67C3950.06 1844.79 3949.15 1845.71 3948.02 1845.71 3946.89 1845.71 3945.98 1844.79 3945.98 1843.67 3945.98 1842.54 3946.89 1841.62 3948.02 1841.62 3949.15 1841.62 3950.06 1842.54 3950.06 1843.67Z"/><path d="M3958.23 1843.67C3958.23 1844.79 3957.32 1845.71 3956.19 1845.71 3955.06 1845.71 3954.15 1844.79 3954.15 1843.67 3954.15 1842.54 3955.06 1841.62 3956.19 1841.62 3957.32 1841.62 3958.23 1842.54 3958.23 1843.67Z"/><path d="M3981.71 1856.94 3975.58 1863.06 3967.42 1863.06 3967.42 1885.52 3975.58 1885.52 3981.71 1891.65 3987.83 1891.65 3987.83 1856.94Z"/><path d="M3952.1 1852.85C3947 1852.85 3942.92 1848.77 3942.92 1843.67 3942.92 1838.56 3947 1834.48 3952.1 1834.48 3957.21 1834.48 3961.29 1838.56 3961.29 1843.67 3961.29 1848.77 3957.21 1852.85 3952.1 1852.85ZM3955.17 1885.52C3954.04 1885.52 3953.13 1884.6 3953.13 1883.48 3953.13 1882.36 3954.04 1881.44 3955.17 1881.44 3956.29 1881.44 3957.21 1882.36 3957.21 1883.48 3957.21 1884.6 3956.29 1885.52 3955.17 1885.52ZM3935.77 1856.94C3937.1 1855.1 3938.12 1853.06 3938.53 1850.71 3939.85 1853.26 3942 1855.41 3944.45 1856.94L3935.77 1856.94ZM3923.52 1856.94C3918.42 1856.94 3914.33 1852.85 3914.33 1847.75 3914.33 1842.65 3918.42 1838.56 3923.52 1838.56 3928.63 1838.56 3932.71 1842.65 3932.71 1847.75 3932.71 1852.85 3928.63 1856.94 3923.52 1856.94ZM3959.66 1856.94C3964.25 1854.28 3967.42 1849.38 3967.42 1843.67 3967.42 1835.19 3960.58 1828.35 3952.1 1828.35 3944.65 1828.35 3938.53 1833.66 3937.1 1840.71 3934.55 1835.81 3929.44 1832.44 3923.52 1832.44 3915.05 1832.44 3908.21 1839.28 3908.21 1847.75 3908.21 1852.75 3910.66 1857.14 3914.33 1860L3914.33 1863.06 3912.29 1863.06 3910.25 1861.02 3906.17 1861.02 3906.17 1871.23 3910.25 1871.23 3912.29 1869.19 3914.33 1869.19 3914.33 1887.56C3914.33 1889.81 3916.17 1891.65 3918.42 1891.65L3959.25 1891.65C3961.5 1891.65 3963.33 1889.81 3963.33 1887.56L3963.33 1861.02C3963.33 1858.88 3961.7 1857.14 3959.66 1856.94Z"/></g></g></g><rect x="3520.5" y="1935.5" width="506" height="87" stroke="#000000" stroke-width="4.58333" stroke-miterlimit="8" fill="#FFFFFF"/><text fill="#FFFFFF" font-family="DengXian,DengXian_MSFontService,sans-serif" font-weight="400" font-size="83" transform="matrix(1 0 0 1 3732.07 2006)">①</text><text font-family="Arial,Arial_MSFontService,sans-serif" font-weight="700" font-size="73" transform="matrix(1 0 0 1 3539.39 2005)">3</text><text font-family="Arial,Arial_MSFontService,sans-serif" font-weight="700" font-size="73" transform="matrix(1 0 0 1 3580.07 2005)">.</text><g clip-path="url(#clip82)"><g clip-path="url(#clip83)"><g clip-path="url(#clip84)"><path d="M3757.33 1960.69C3757.33 1969.43 3750.24 1976.52 3741.5 1976.52 3732.76 1976.52 3725.67 1969.43 3725.67 1960.69 3725.67 1951.94 3732.76 1944.85 3741.5 1944.85 3750.24 1944.85 3757.33 1951.94 3757.33 1960.69Z"/><path d="M3773.17 2012.15 3773.17 1996.31C3773.17 1993.94 3771.98 1991.56 3770 1989.98 3765.65 1986.42 3760.1 1984.04 3754.56 1982.46 3750.6 1981.27 3746.25 1980.48 3741.5 1980.48 3737.15 1980.48 3732.79 1981.27 3728.44 1982.46 3722.9 1984.04 3717.35 1986.81 3713 1989.98 3711.02 1991.56 3709.83 1993.94 3709.83 1996.31L3709.83 2012.15 3773.17 2012.15Z"/></g></g></g><g clip-path="url(#clip85)"><g clip-path="url(#clip86)"><g clip-path="url(#clip87)"><path d="M19.7916 13.8541 13.8541 13.8541 13.8541 81.1457 81.1457 81.1457 81.1457 75.2082 19.7916 75.2082Z" transform="matrix(1 0 0 1 3796 1932)"/><path d="M25.7291 34.6354 36.6145 34.6354 36.6145 69.2707 25.7291 69.2707Z" transform="matrix(1 0 0 1 3796 1932)"/><path d="M40.5729 13.8541 51.4583 13.8541 51.4583 69.2707 40.5729 69.2707Z" transform="matrix(1 0 0 1 3796 1932)"/><path d="M55.4166 34.6354 66.302 34.6354 66.302 69.2707 55.4166 69.2707Z" transform="matrix(1 0 0 1 3796 1932)"/><path d="M70.2603 51.4583 81.1457 51.4583 81.1457 69.2707 70.2603 69.2707Z" transform="matrix(1 0 0 1 3796 1932)"/></g></g></g><g clip-path="url(#clip88)"><g clip-path="url(#clip89)"><g clip-path="url(#clip90)"><path d="M3925.56 1964.67C3925.56 1965.79 3924.65 1966.71 3923.52 1966.71 3922.39 1966.71 3921.48 1965.79 3921.48 1964.67 3921.48 1963.54 3922.39 1962.62 3923.52 1962.62 3924.65 1962.62 3925.56 1963.54 3925.56 1964.67Z"/><path d="M3925.56 1972.83C3925.56 1973.96 3924.65 1974.87 3923.52 1974.87 3922.39 1974.87 3921.48 1973.96 3921.48 1972.83 3921.48 1971.71 3922.39 1970.79 3923.52 1970.79 3924.65 1970.79 3925.56 1971.71 3925.56 1972.83Z"/><path d="M3921.48 1968.75C3921.48 1969.88 3920.57 1970.79 3919.44 1970.79 3918.31 1970.79 3917.4 1969.88 3917.4 1968.75 3917.4 1967.62 3918.31 1966.71 3919.44 1966.71 3920.57 1966.71 3921.48 1967.62 3921.48 1968.75Z"/><path d="M3929.65 1968.75C3929.65 1969.88 3928.73 1970.79 3927.6 1970.79 3926.48 1970.79 3925.56 1969.88 3925.56 1968.75 3925.56 1967.62 3926.48 1966.71 3927.6 1966.71 3928.73 1966.71 3929.65 1967.62 3929.65 1968.75Z"/><path d="M3954.15 1960.58C3954.15 1961.71 3953.23 1962.62 3952.1 1962.62 3950.98 1962.62 3950.06 1961.71 3950.06 1960.58 3950.06 1959.46 3950.98 1958.54 3952.1 1958.54 3953.23 1958.54 3954.15 1959.46 3954.15 1960.58Z"/><path d="M3954.15 1968.75C3954.15 1969.88 3953.23 1970.79 3952.1 1970.79 3950.98 1970.79 3950.06 1969.88 3950.06 1968.75 3950.06 1967.62 3950.98 1966.71 3952.1 1966.71 3953.23 1966.71 3954.15 1967.62 3954.15 1968.75Z"/><path d="M3950.06 1964.67C3950.06 1965.79 3949.15 1966.71 3948.02 1966.71 3946.89 1966.71 3945.98 1965.79 3945.98 1964.67 3945.98 1963.54 3946.89 1962.62 3948.02 1962.62 3949.15 1962.62 3950.06 1963.54 3950.06 1964.67Z"/><path d="M3958.23 1964.67C3958.23 1965.79 3957.32 1966.71 3956.19 1966.71 3955.06 1966.71 3954.15 1965.79 3954.15 1964.67 3954.15 1963.54 3955.06 1962.62 3956.19 1962.62 3957.32 1962.62 3958.23 1963.54 3958.23 1964.67Z"/><path d="M3981.71 1977.94 3975.58 1984.06 3967.42 1984.06 3967.42 2006.52 3975.58 2006.52 3981.71 2012.65 3987.83 2012.65 3987.83 1977.94Z"/><path d="M3952.1 1973.85C3947 1973.85 3942.92 1969.77 3942.92 1964.67 3942.92 1959.56 3947 1955.48 3952.1 1955.48 3957.21 1955.48 3961.29 1959.56 3961.29 1964.67 3961.29 1969.77 3957.21 1973.85 3952.1 1973.85ZM3955.17 2006.52C3954.04 2006.52 3953.13 2005.6 3953.13 2004.48 3953.13 2003.36 3954.04 2002.44 3955.17 2002.44 3956.29 2002.44 3957.21 2003.36 3957.21 2004.48 3957.21 2005.6 3956.29 2006.52 3955.17 2006.52ZM3935.77 1977.94C3937.1 1976.1 3938.12 1974.06 3938.53 1971.71 3939.85 1974.26 3942 1976.41 3944.45 1977.94L3935.77 1977.94ZM3923.52 1977.94C3918.42 1977.94 3914.33 1973.85 3914.33 1968.75 3914.33 1963.65 3918.42 1959.56 3923.52 1959.56 3928.63 1959.56 3932.71 1963.65 3932.71 1968.75 3932.71 1973.85 3928.63 1977.94 3923.52 1977.94ZM3959.66 1977.94C3964.25 1975.28 3967.42 1970.38 3967.42 1964.67 3967.42 1956.19 3960.58 1949.35 3952.1 1949.35 3944.65 1949.35 3938.53 1954.66 3937.1 1961.71 3934.55 1956.81 3929.44 1953.44 3923.52 1953.44 3915.05 1953.44 3908.21 1960.28 3908.21 1968.75 3908.21 1973.75 3910.66 1978.14 3914.33 1981L3914.33 1984.06 3912.29 1984.06 3910.25 1982.02 3906.17 1982.02 3906.17 1992.23 3910.25 1992.23 3912.29 1990.19 3914.33 1990.19 3914.33 2008.56C3914.33 2010.81 3916.17 2012.65 3918.42 2012.65L3959.25 2012.65C3961.5 2012.65 3963.33 2010.81 3963.33 2008.56L3963.33 1982.02C3963.33 1979.88 3961.7 1978.14 3959.66 1977.94Z"/></g></g></g><path d="M3408 1815 3462 1869 3408 1923 3408 1896 3281 1896 3281 1842 3408 1842Z" stroke="#000000" stroke-width="8.02083" stroke-miterlimit="8" fill="#FFFFFF" fill-rule="evenodd"/></g></svg>